<svg width="28" height="28" viewBox="0 0 28 28" fill="none" xmlns="http://www.w3.org/2000/svg">
<g clip-path="url(#clip0)">
<path d="M16.4741 12.4002C17.841 13.767 17.841 15.9832 16.4741 17.3501C15.1072 18.7169 12.8911 18.7169 11.5242 17.3501C10.1573 15.9832 10.1573 13.767 11.5242 12.4002C12.8911 11.0333 15.1072 11.0333 16.4741 12.4002Z" fill="black"/>
<path d="M24.4999 5.24963H22.0816L20.3307 1.74951H7.6676L5.91838 5.25135L3.5035 5.25565C1.57829 5.25909 0.0110635 6.82798 0.00940107 8.75405L0 22.7493C0 24.6797 1.56975 26.2503 3.50012 26.2503H24.4999C26.4303 26.2503 28.0001 24.6806 28.0001 22.7502V8.7497C28 6.81938 26.4303 5.24963 24.4999 5.24963ZM13.9996 21.8751C10.1397 21.8751 6.99933 18.7348 6.99933 14.8749C6.99933 11.015 10.1397 7.87465 13.9996 7.87465C17.8595 7.87465 20.9998 11.015 20.9998 14.8749C20.9998 18.7348 17.8595 21.8751 13.9996 21.8751Z" fill="black"/>
</g>
<defs>
<clipPath id="clip0">
<rect width="28" height="28" fill="white"/>
</clipPath>
</defs>
</svg>
