<svg width="24" height="24" viewBox="0 0 24 24" xmlns="http://www.w3.org/2000/svg">
<path opacity="0.2" fill-rule="evenodd" clip-rule="evenodd" d="M11.7172 2.76273C11.5219 2.56747 11.2053 2.56747 11.0101 2.76273L2.08076 11.692C1.8855 11.8873 1.8855 12.2039 2.08076 12.3991L11.0101 21.3284C11.2053 21.5237 11.5219 21.5237 11.7172 21.3284L12.2828 20.7627C12.4781 20.5675 12.4781 20.2509 12.2828 20.0556L6.02634 13.7991C5.71136 13.4841 5.93445 12.9456 6.3799 12.9456H20.5C20.7761 12.9456 21 12.7217 21 12.4456V11.6456C21 11.3694 20.7761 11.1456 20.5 11.1456H6.3799C5.93445 11.1456 5.71136 10.607 6.02634 10.292L12.2828 4.03553C12.4781 3.84026 12.4781 3.52368 12.2828 3.32842L11.7172 2.76273Z"/>
<path fill-rule="evenodd" clip-rule="evenodd" d="M13.0581 1.85355C12.8628 1.65829 12.5462 1.65829 12.351 1.85355L3.26257 10.9419C3.0673 11.1372 3.0673 11.4538 3.26256 11.649L12.351 20.7374C12.5462 20.9327 12.8628 20.9327 13.0581 20.7374L13.9419 19.8536C14.1372 19.6583 14.1372 19.3417 13.9419 19.1464L8.06954 13.274C7.75456 12.9591 7.97765 12.4205 8.4231 12.4205H22C22.2761 12.4205 22.5 12.1966 22.5 11.9205V10.6705C22.5 10.3944 22.2761 10.1705 22 10.1705H8.4231C7.97765 10.1705 7.75456 9.63192 8.06954 9.31694L13.9419 3.44454C14.1372 3.24928 14.1372 2.9327 13.9419 2.73744L13.0581 1.85355Z"/>
</svg>
