<svg width="24" height="24" viewBox="0 0 24 24" xmlns="http://www.w3.org/2000/svg">
<path opacity="0.2" fill-rule="evenodd" clip-rule="evenodd" d="M12.2828 2.76273C12.4781 2.56747 12.7947 2.56747 12.9899 2.76273L21.9192 11.692C22.1145 11.8873 22.1145 12.2039 21.9192 12.3991L12.9899 21.3284C12.7947 21.5237 12.4781 21.5237 12.2828 21.3284L11.7172 20.7627C11.5219 20.5675 11.5219 20.2509 11.7172 20.0556L17.9737 13.7991C18.2886 13.4841 18.0656 12.9456 17.6201 12.9456H3.5C3.22386 12.9456 3 12.7217 3 12.4456V11.6456C3 11.3694 3.22386 11.1456 3.5 11.1456H17.6201C18.0656 11.1456 18.2886 10.607 17.9737 10.292L11.7172 4.03553C11.5219 3.84026 11.5219 3.52368 11.7172 3.32842L12.2828 2.76273Z"/>
<path fill-rule="evenodd" clip-rule="evenodd" d="M10.9419 1.85355C11.1372 1.65829 11.4538 1.65829 11.649 1.85355L20.7374 10.9419C20.9327 11.1372 20.9327 11.4538 20.7374 11.649L11.649 20.7374C11.4538 20.9327 11.1372 20.9327 10.9419 20.7374L10.0581 19.8536C9.8628 19.6583 9.86279 19.3417 10.0581 19.1464L15.9305 13.274C16.2454 12.9591 16.0224 12.4205 15.5769 12.4205H2C1.72386 12.4205 1.5 12.1966 1.5 11.9205V10.6705C1.5 10.3944 1.72386 10.1705 2 10.1705H15.5769C16.0224 10.1705 16.2454 9.63192 15.9305 9.31694L10.0581 3.44454C9.86279 3.24928 9.8628 2.9327 10.0581 2.73744L10.9419 1.85355Z"/>
</svg>
