<svg width="25" height="24" viewBox="0 0 25 24" xmlns="http://www.w3.org/2000/svg">
<path opacity="0.4" d="M1 5.5C1 5.22386 1.22386 5 1.5 5H24.5C24.7761 5 25 5.22386 25 5.5V7.5C25 7.77614 24.7761 8 24.5 8H1.5C1.22386 8 1 7.77614 1 7.5V5.5Z" />
<path opacity="0.4" d="M1 12.5C1 12.2239 1.22386 12 1.5 12H24.5C24.7761 12 25 12.2239 25 12.5V13.5C25 13.7761 24.7761 14 24.5 14H1.5C1.22386 14 1 13.7761 1 13.5V12.5Z" />
<path opacity="0.4" d="M1 18.5C1 18.2239 1.22386 18 1.5 18H24.5C24.7761 18 25 18.2239 25 18.5V20.5C25 20.7761 24.7761 21 24.5 21H1.5C1.22386 21 1 20.7761 1 20.5V18.5Z" />
<path d="M0 4.5C0 4.22386 0.223858 4 0.5 4H23.5C23.7761 4 24 4.22386 24 4.5V6.5C24 6.77614 23.7761 7 23.5 7H0.5C0.223857 7 0 6.77614 0 6.5V4.5Z" />
<path d="M0 11.5C0 11.2239 0.223858 11 0.5 11H23.5C23.7761 11 24 11.2239 24 11.5V12.5C24 12.7761 23.7761 13 23.5 13H0.5C0.223857 13 0 12.7761 0 12.5V11.5Z"/>
<path d="M0 17.5C0 17.2239 0.223858 17 0.5 17H23.5C23.7761 17 24 17.2239 24 17.5V19.5C24 19.7761 23.7761 20 23.5 20H0.5C0.223857 20 0 19.7761 0 19.5V17.5Z"/>
</svg>
