<svg width="24" height="24" viewBox="0 0 24 24" xmlns="http://www.w3.org/2000/svg">
<path opacity="0.4" fill-rule="evenodd" clip-rule="evenodd" d="M6.07172 3.10665C5.87646 2.91139 5.55988 2.91139 5.36462 3.10665L3.9504 4.52087C3.75514 4.71613 3.75514 5.03271 3.9504 5.22797L11.1499 12.4275L3.9516 19.6257C3.75634 19.821 3.75634 20.1376 3.95161 20.3328L5.36582 21.7471C5.56108 21.9423 5.87766 21.9423 6.07292 21.7471L13.2712 14.5488L20.2139 21.4914C20.4091 21.6867 20.7257 21.6867 20.921 21.4914L22.3352 20.0772C22.5304 19.882 22.5304 19.5654 22.3352 19.3701L15.3925 12.4275L22.3364 5.48361C22.5316 5.28834 22.5316 4.97176 22.3364 4.7765L20.9222 3.36228C20.7269 3.16702 20.4103 3.16702 20.2151 3.36228L13.2712 10.3061L6.07172 3.10665Z"/>
<path fill-rule="evenodd" clip-rule="evenodd" d="M5.07148 3.10665C4.87622 2.91139 4.55963 2.91139 4.36437 3.10665L2.95016 4.52087C2.7549 4.71613 2.7549 5.03271 2.95016 5.22797L10.1496 12.4275L2.95136 19.6257C2.7561 19.821 2.7561 20.1376 2.95136 20.3328L4.36557 21.7471C4.56084 21.9423 4.87742 21.9423 5.07268 21.7471L12.271 14.5488L19.2136 21.4914C19.4089 21.6867 19.7255 21.6867 19.9207 21.4914L21.3349 20.0772C21.5302 19.882 21.5302 19.5654 21.3349 19.3701L14.3923 12.4275L21.3361 5.48361C21.5314 5.28834 21.5314 4.97176 21.3361 4.7765L19.9219 3.36228C19.7267 3.16702 19.4101 3.16702 19.2148 3.36228L12.271 10.3061L5.07148 3.10665Z"/>
</svg>
