<svg width="24" height="24" viewBox="0 0 24 24" xmlns="http://www.w3.org/2000/svg">
<path opacity="0.4" fill-rule="evenodd" clip-rule="evenodd" d="M22.6426 5.35515C22.8288 5.40444 23.148 5.49817 23.3842 5.70617L23.4859 5.79581L23.5554 5.91174C23.7557 6.24636 23.8466 6.68802 23.8995 7.07642C23.9569 7.49777 23.9856 7.99452 23.9957 8.52409C24.0158 9.58546 23.9622 10.8509 23.8836 12.0546C23.8049 13.2617 23.7 14.423 23.615 15.2814C23.5725 15.7109 23.5348 16.0655 23.5078 16.313C23.4942 16.4367 23.4833 16.5338 23.4758 16.6002L23.4671 16.6762L23.4648 16.696L23.4641 16.7026L23.4621 16.7193L23.4595 16.7361L23.4591 16.7385L23.4585 16.7425L23.4566 16.7537L23.4506 16.7879C23.4455 16.8158 23.4383 16.8538 23.4284 16.9005C23.4088 16.9936 23.3787 17.1224 23.3354 17.2755C23.2495 17.5785 23.107 17.9924 22.88 18.4174C22.4344 19.2517 21.5626 20.2917 20.0303 20.3522C17.8414 20.4387 9.37518 20.3883 5.54393 20.3529C5.49595 20.3524 5.44274 20.3525 5.385 20.3526C4.90856 20.3531 4.12343 20.354 3.41524 20.0736C2.99084 19.9055 2.57573 19.6341 2.23885 19.2067C1.9045 18.7826 1.68126 18.2483 1.57038 17.6026C1.3935 16.5726 1.21124 14.0086 1.20046 11.5889C1.19504 10.3732 1.23256 9.16201 1.3414 8.17456C1.39564 7.68243 1.47001 7.22266 1.57373 6.83597C1.66761 6.48595 1.81988 6.05524 2.11458 5.7524L2.13798 5.72836L2.16317 5.70617C2.39932 5.49817 2.71858 5.40444 2.90468 5.35515C3.14034 5.29274 3.42473 5.24051 3.73701 5.19532C4.36491 5.10446 5.18391 5.03117 6.11749 4.97336C7.98921 4.85746 10.3855 4.80005 12.7737 4.80005C15.1618 4.80005 17.5581 4.85746 19.4298 4.97336C20.3634 5.03117 21.1824 5.10446 21.8103 5.19532C22.1226 5.24051 22.407 5.29274 22.6426 5.35515ZM21.7244 16.4816L21.7246 16.4797L21.7329 16.4069C21.7402 16.3427 21.7508 16.248 21.7641 16.1268C21.7906 15.8842 21.8276 15.5355 21.8695 15.1126C21.9534 14.2659 22.0563 13.1249 22.1334 11.943C22.2108 10.7576 22.261 9.54729 22.2422 8.55662C22.2397 8.42954 22.2362 8.30725 22.2315 8.19011C21.8677 8.50261 21.4673 8.8145 21.0506 9.11887C20.0127 9.87694 18.7989 10.6417 17.6172 11.3201C16.4353 11.9986 15.2702 12.5994 14.3257 13.027C13.8548 13.2401 13.4256 13.4162 13.0694 13.5373C12.8918 13.5977 12.7189 13.6491 12.5598 13.6839C12.4189 13.7148 12.2158 13.7498 12.0076 13.7284C11.6166 13.6882 11.0725 13.521 10.4552 13.262C9.81697 12.9943 9.03995 12.6027 8.16797 12.0678C6.69922 11.167 4.94874 9.85224 3.12734 8.02056C3.11231 8.12828 3.09816 8.24226 3.08493 8.36227C2.98634 9.2567 2.949 10.3945 2.95429 11.5812C2.96491 13.9663 3.14634 16.4206 3.2995 17.3126C3.37198 17.7346 3.50019 17.9865 3.62235 18.1414C3.74197 18.2932 3.88842 18.3936 4.0676 18.4646C4.44103 18.6125 4.87277 18.6152 5.39179 18.6184C5.44698 18.6187 5.50316 18.6191 5.56036 18.6196C9.41824 18.6553 17.8265 18.7046 19.9602 18.6203C20.589 18.5954 21.0161 18.194 21.329 17.6082C21.4813 17.3231 21.583 17.0323 21.6465 16.8081C21.6778 16.6976 21.6987 16.6072 21.7114 16.547C21.7177 16.5171 21.722 16.4947 21.7244 16.4816ZM4.42674 6.85428C6.13107 8.56041 7.75364 9.7737 9.09281 10.5951C9.89633 11.0879 10.5935 11.437 11.1404 11.6665C11.6544 11.8821 11.9917 11.9733 12.1463 11.9985C12.1552 11.9969 12.1667 11.9947 12.1808 11.9916C12.2524 11.9759 12.3574 11.9464 12.4987 11.8984C12.7801 11.8026 13.1521 11.6517 13.5953 11.4511C14.4789 11.0512 15.5932 10.4775 16.7363 9.8213C17.8795 9.16502 19.036 8.43499 20.0082 7.72493C20.4261 7.41962 20.7974 7.12699 21.1138 6.85349C20.618 6.79651 20.0121 6.74615 19.3202 6.7033C17.4967 6.59039 15.1392 6.53338 12.7737 6.53338C10.4081 6.53338 8.05064 6.59039 6.22717 6.7033C5.53206 6.74634 4.92374 6.79697 4.42674 6.85428Z"/>
<path fill-rule="evenodd" clip-rule="evenodd" d="M21.4427 4.1552C21.6288 4.20449 21.9481 4.29822 22.1842 4.50622L22.286 4.59585L22.3554 4.71179C22.5558 5.0464 22.6466 5.48807 22.6996 5.87647C22.757 6.29782 22.7857 6.79457 22.7957 7.32414C22.8159 8.38551 22.7622 9.65099 22.6837 10.8546C22.6049 12.0618 22.5001 13.2231 22.4151 14.0815C22.3725 14.511 22.3349 14.8655 22.3078 15.113C22.2943 15.2368 22.2834 15.3339 22.2759 15.4002L22.2672 15.4762L22.2649 15.496L22.2641 15.5026C22.2641 15.5027 22.264 15.5032 21.3929 15.4034C22.2596 15.5355 22.2596 15.5358 22.2595 15.5361L22.2592 15.5385L22.2585 15.5426L22.2567 15.5537L22.2507 15.5879C22.2456 15.6159 22.2383 15.6538 22.2285 15.7005C22.2088 15.7937 22.1788 15.9225 22.1354 16.0756C22.0496 16.3786 21.9071 16.7924 21.6801 17.2174C21.2344 18.0517 20.3627 19.0917 18.8303 19.1523C16.6414 19.2388 8.17523 19.1884 4.34398 19.1529C4.296 19.1525 4.24279 19.1525 4.18505 19.1526C3.70861 19.1532 2.92348 19.1541 2.21529 18.8736C1.79089 18.7056 1.37578 18.4341 1.03889 18.0068C0.704546 17.5827 0.481311 17.0483 0.370431 16.4026C0.193551 15.3726 0.0112877 12.8086 0.000505669 10.3889C-0.00491139 9.17323 0.0326081 7.96205 0.141445 6.97461C0.195689 6.48247 0.270057 6.02271 0.37378 5.63602C0.467662 5.286 0.619927 4.85529 0.914633 4.55245L0.938028 4.52841L0.963223 4.50622C1.19937 4.29822 1.51863 4.20449 1.70473 4.1552C1.94039 4.09279 2.22478 4.04056 2.53706 3.99537C3.16496 3.90451 3.98396 3.83122 4.91754 3.77341C6.78926 3.6575 9.18556 3.6001 11.5737 3.6001C13.9619 3.6001 16.3582 3.6575 18.2299 3.77341C19.1635 3.83122 19.9825 3.90451 20.6104 3.99537C20.9227 4.04056 21.207 4.09279 21.4427 4.1552ZM21.3929 15.4034L22.2595 15.5361L22.2621 15.5194L22.2641 15.5026L21.3929 15.4034ZM20.5244 15.2816L20.5246 15.2797L20.533 15.2069C20.5402 15.1428 20.5509 15.0481 20.5641 14.9268C20.5906 14.6843 20.6277 14.3356 20.6696 13.9126C20.7534 13.066 20.8564 11.925 20.9335 10.7431C21.0108 9.55766 21.061 8.34734 21.0422 7.35666C21.0398 7.22959 21.0363 7.1073 21.0316 6.99016C20.6678 7.30266 20.2673 7.61455 19.8506 7.91892C18.8128 8.67699 17.599 9.44179 16.4173 10.1202C15.2354 10.7986 14.0703 11.3995 13.1257 11.827C12.6549 12.0402 12.2257 12.2162 11.8695 12.3374C11.6919 12.3978 11.5189 12.4492 11.3599 12.484C11.219 12.5148 11.0159 12.5498 10.8076 12.5284C10.4166 12.4882 9.87256 12.321 9.25526 12.0621C8.61702 11.7944 7.83999 11.4027 6.96802 10.8679C5.49927 9.96702 3.74879 8.65229 1.92739 6.8206C1.91236 6.92833 1.89821 7.04231 1.88498 7.16232C1.78639 8.05675 1.74905 9.19458 1.75434 10.3813C1.76496 12.7664 1.94639 15.2207 2.09955 16.1126C2.17203 16.5347 2.30024 16.7865 2.4224 16.9415C2.54202 17.0932 2.68846 17.1937 2.86765 17.2647C3.24108 17.4125 3.67282 17.4152 4.19184 17.4184C4.24703 17.4188 4.30321 17.4191 4.36041 17.4197C8.21828 17.4554 16.6266 17.5046 18.7602 17.4203C19.3891 17.3955 19.8162 16.994 20.1291 16.4082C20.2813 16.1232 20.383 15.8323 20.4465 15.6082C20.4779 15.4977 20.4988 15.4073 20.5115 15.3471C20.5178 15.3171 20.522 15.2947 20.5244 15.2816ZM3.22679 5.65433C4.93112 7.36046 6.55369 8.57375 7.89286 9.39514C8.69638 9.88799 9.39354 10.2371 9.94049 10.4665C10.4545 10.6821 10.7917 10.7734 10.9464 10.7986C10.9553 10.7969 10.9667 10.7947 10.9808 10.7916C11.0525 10.776 11.1575 10.7464 11.2987 10.6984C11.5801 10.6027 11.9522 10.4518 12.3954 10.2511C13.2789 9.85121 14.3933 9.27754 15.5363 8.62135C16.6795 7.96507 17.8361 7.23504 18.8082 6.52498C19.2262 6.21967 19.5974 5.92704 19.9138 5.65354C19.4181 5.59656 18.8121 5.5462 18.1202 5.50335C16.2967 5.39044 13.9393 5.33343 11.5737 5.33343C9.20813 5.33343 6.85069 5.39044 5.02722 5.50335C4.33211 5.54639 3.72378 5.59702 3.22679 5.65433Z"/>
</svg>
