<svg width="24" height="24" viewBox="0 0 24 24" xmlns="http://www.w3.org/2000/svg">
<g opacity="0.8">
<path d="M3 6.42857C3 5.36345 3.80589 4.5 4.8 4.5H19.2C20.1941 4.5 21 5.36345 21 6.42857V16.0714C21 17.1365 20.1941 18 19.2 18H4.8C3.80589 18 3 17.1365 3 16.0714V6.42857Z" />
<path fill-rule="evenodd" clip-rule="evenodd" d="M5.41205 7.9309C5.70746 7.48634 6.30614 7.36621 6.74925 7.66258L12 11.1746L17.2507 7.66258C17.6939 7.36621 18.2925 7.48634 18.5879 7.9309C18.8834 8.37547 18.7636 8.97612 18.3205 9.2725L12 13.5L5.67949 9.2725C5.23638 8.97612 5.11664 8.37547 5.41205 7.9309Z" fill="white"/>
</g>
</svg>
