<svg width="24" height="24" viewBox="0 0 24 24" xmlns="http://www.w3.org/2000/svg">
<path opacity="0.4" d="M4.36914 24H11.3711C11.6472 24 11.8711 23.7761 11.8711 23.5V16.3242C11.8711 16.0481 11.6472 15.8242 11.3711 15.8242H9.67578C9.39964 15.8242 9.17578 15.6004 9.17578 15.3242V13.6289C9.17578 13.3528 9.39964 13.1289 9.67578 13.1289H11.3711C11.6472 13.1289 11.8711 12.905 11.8711 12.6289V9.75977C11.8711 7.902 13.3825 6.39062 15.2402 6.39062H18.1094C18.3855 6.39062 18.6094 6.61448 18.6094 6.89062V8.58594C18.6094 8.86208 18.3855 9.08594 18.1094 9.08594H15.9141C15.1709 9.08594 14.5664 9.69045 14.5664 10.4336V12.6289C14.5664 12.905 14.7903 13.1289 15.0664 13.1289H17.8975C18.2065 13.1289 18.4415 13.4063 18.3907 13.7111L18.1082 15.4064C18.068 15.6475 17.8594 15.8242 17.615 15.8242H15.0664C14.7903 15.8242 14.5664 16.0481 14.5664 16.3242V23.5C14.5664 23.7761 14.7903 24 15.0664 24H20.6309C22.4886 24 24 22.4886 24 20.6309V4.36914C24 2.51138 22.4886 1 20.6309 1H4.36914C2.51138 1 1 2.51138 1 4.36914V20.6309C1 22.4886 2.51138 24 4.36914 24ZM2.34766 4.36914C2.34766 3.25452 3.25452 2.34766 4.36914 2.34766H20.6309C21.7455 2.34766 22.6523 3.25452 22.6523 4.36914V20.6309C22.6523 21.7455 21.7455 22.6523 20.6309 22.6523H16.4141C16.1379 22.6523 15.9141 22.4285 15.9141 22.1523V17.6719C15.9141 17.3957 16.1379 17.1719 16.4141 17.1719H18.7566C19.0011 17.1719 19.2097 16.9952 19.2498 16.7541L19.9816 12.3635C20.0324 12.0587 19.7974 11.7812 19.4884 11.7812H16.4141C16.1379 11.7812 15.9141 11.5574 15.9141 11.2812V10.9336C15.9141 10.6575 16.1379 10.4336 16.4141 10.4336H19.457C19.7332 10.4336 19.957 10.2097 19.957 9.93359V5.54297C19.957 5.26683 19.7332 5.04297 19.457 5.04297H15.2402C12.6393 5.04297 10.5234 7.15886 10.5234 9.75977V11.2812C10.5234 11.5574 10.2996 11.7812 10.0234 11.7812H8.32812C8.05198 11.7812 7.82812 12.0051 7.82812 12.2812V16.6719C7.82812 16.948 8.05198 17.1719 8.32812 17.1719H10.0234C10.2996 17.1719 10.5234 17.3957 10.5234 17.6719V22.1523C10.5234 22.4285 10.2996 22.6523 10.0234 22.6523H4.36914C3.25452 22.6523 2.34766 21.7455 2.34766 20.6309V4.36914Z"/>
<path d="M3.36914 23H10.3711C10.6472 23 10.8711 22.7761 10.8711 22.5V15.3242C10.8711 15.0481 10.6472 14.8242 10.3711 14.8242H8.67578C8.39964 14.8242 8.17578 14.6004 8.17578 14.3242V12.6289C8.17578 12.3528 8.39964 12.1289 8.67578 12.1289H10.3711C10.6472 12.1289 10.8711 11.905 10.8711 11.6289V8.75977C10.8711 6.902 12.3825 5.39062 14.2402 5.39062H17.1094C17.3855 5.39062 17.6094 5.61448 17.6094 5.89062V7.58594C17.6094 7.86208 17.3855 8.08594 17.1094 8.08594H14.9141C14.1709 8.08594 13.5664 8.69045 13.5664 9.43359V11.6289C13.5664 11.905 13.7903 12.1289 14.0664 12.1289H16.8975C17.2065 12.1289 17.4415 12.4063 17.3907 12.7111L17.1082 14.4064C17.068 14.6475 16.8594 14.8242 16.615 14.8242H14.0664C13.7903 14.8242 13.5664 15.0481 13.5664 15.3242V22.5C13.5664 22.7761 13.7903 23 14.0664 23H19.6309C21.4886 23 23 21.4886 23 19.6309V3.36914C23 1.51138 21.4886 0 19.6309 0H3.36914C1.51138 0 0 1.51138 0 3.36914V19.6309C0 21.4886 1.51138 23 3.36914 23ZM1.34766 3.36914C1.34766 2.25452 2.25452 1.34766 3.36914 1.34766H19.6309C20.7455 1.34766 21.6523 2.25452 21.6523 3.36914V19.6309C21.6523 20.7455 20.7455 21.6523 19.6309 21.6523H15.4141C15.1379 21.6523 14.9141 21.4285 14.9141 21.1523V16.6719C14.9141 16.3957 15.1379 16.1719 15.4141 16.1719H17.7566C18.0011 16.1719 18.2097 15.9952 18.2498 15.7541L18.9816 11.3635C19.0324 11.0587 18.7974 10.7812 18.4884 10.7812H15.4141C15.1379 10.7812 14.9141 10.5574 14.9141 10.2812V9.93359C14.9141 9.65745 15.1379 9.43359 15.4141 9.43359H18.457C18.7332 9.43359 18.957 9.20974 18.957 8.93359V4.54297C18.957 4.26683 18.7332 4.04297 18.457 4.04297H14.2402C11.6393 4.04297 9.52344 6.15886 9.52344 8.75977V10.2812C9.52344 10.5574 9.29958 10.7812 9.02344 10.7812H7.32812C7.05198 10.7812 6.82812 11.0051 6.82812 11.2812V15.6719C6.82812 15.948 7.05198 16.1719 7.32812 16.1719H9.02344C9.29958 16.1719 9.52344 16.3957 9.52344 16.6719V21.1523C9.52344 21.4285 9.29958 21.6523 9.02344 21.6523H3.36914C2.25452 21.6523 1.34766 20.7455 1.34766 19.6309V3.36914Z"/>
</svg>
