<svg width="24" height="24" viewBox="0 0 24 24" xmlns="http://www.w3.org/2000/svg">
<path opacity="0.4" d="M4.36914 24H20.6309C22.4886 24 24 22.4886 24 20.6309V4.36914C24 2.51138 22.4886 1 20.6309 1H4.36914C2.51138 1 1 2.51138 1 4.36914V20.6309C1 22.4886 2.51138 24 4.36914 24ZM2.34766 4.36914C2.34766 3.25452 3.25452 2.34766 4.36914 2.34766H20.6309C21.7455 2.34766 22.6523 3.25452 22.6523 4.36914V20.6309C22.6523 21.7455 21.7455 22.6523 20.6309 22.6523H4.36914C3.25452 22.6523 2.34766 21.7455 2.34766 20.6309V4.36914Z"/>
<path opacity="0.4" d="M12.5 19C16.084 19 19 16.084 19 12.5C19 8.91597 16.084 6 12.5 6C8.91597 6 6 8.91597 6 12.5C6 16.084 8.91597 19 12.5 19ZM12.5 7.44444C15.2877 7.44444 17.5556 9.7123 17.5556 12.5C17.5556 15.2877 15.2877 17.5556 12.5 17.5556C9.7123 17.5556 7.44444 15.2877 7.44444 12.5C7.44444 9.7123 9.7123 7.44444 12.5 7.44444Z"/>
<path opacity="0.4" d="M19 8C20.1028 8 21 7.10278 21 6C21 4.89722 20.1028 4 19 4C17.8972 4 17 4.89722 17 6C17 7.10278 17.8972 8 19 8ZM19 5.33333C19.3675 5.33333 19.6667 5.63247 19.6667 6C19.6667 6.36753 19.3675 6.66667 19 6.66667C18.6325 6.66667 18.3333 6.36753 18.3333 6C18.3333 5.63247 18.6325 5.33333 19 5.33333Z"/>
<path d="M3.36914 23H19.6309C21.4886 23 23 21.4886 23 19.6309V3.36914C23 1.51138 21.4886 0 19.6309 0H3.36914C1.51138 0 0 1.51138 0 3.36914V19.6309C0 21.4886 1.51138 23 3.36914 23ZM1.34766 3.36914C1.34766 2.25452 2.25452 1.34766 3.36914 1.34766H19.6309C20.7455 1.34766 21.6523 2.25452 21.6523 3.36914V19.6309C21.6523 20.7455 20.7455 21.6523 19.6309 21.6523H3.36914C2.25452 21.6523 1.34766 20.7455 1.34766 19.6309V3.36914Z"/>
<path d="M11.5 18C15.084 18 18 15.084 18 11.5C18 7.91597 15.084 5 11.5 5C7.91597 5 5 7.91597 5 11.5C5 15.084 7.91597 18 11.5 18ZM11.5 6.44444C14.2877 6.44444 16.5556 8.7123 16.5556 11.5C16.5556 14.2877 14.2877 16.5556 11.5 16.5556C8.7123 16.5556 6.44444 14.2877 6.44444 11.5C6.44444 8.7123 8.7123 6.44444 11.5 6.44444Z"/>
<path d="M18 7C19.1028 7 20 6.10278 20 5C20 3.89722 19.1028 3 18 3C16.8972 3 16 3.89722 16 5C16 6.10278 16.8972 7 18 7ZM18 4.33333C18.3675 4.33333 18.6667 4.63247 18.6667 5C18.6667 5.36753 18.3675 5.66667 18 5.66667C17.6325 5.66667 17.3333 5.36753 17.3333 5C17.3333 4.63247 17.6325 4.33333 18 4.33333Z"/>
</svg>
