<svg width="24" height="24" viewBox="0 0 24 24" xmlns="http://www.w3.org/2000/svg">
<g opacity="0.8">
<path d="M3 8.25C3 6.17893 4.61177 4.5 6.6 4.5H17.4C19.3882 4.5 21 6.17893 21 8.25V13.875C21 15.9461 19.3882 17.625 17.4 17.625H8.4L3 19.5V8.25Z"/>
<path d="M6 9.75C6 9.33579 6.33579 9 6.75 9H17.25C17.6642 9 18 9.33579 18 9.75C18 10.1642 17.6642 10.5 17.25 10.5H6.75C6.33579 10.5 6 10.1642 6 9.75Z" fill="white"/>
<path d="M6 12.75C6 12.3358 6.33579 12 6.75 12H14.25C14.6642 12 15 12.3358 15 12.75C15 13.1642 14.6642 13.5 14.25 13.5H6.75C6.33579 13.5 6 13.1642 6 12.75Z" fill="white"/>
</g>
</svg>
