<svg width="24" height="24" viewBox="0 0 24 24" xmlns="http://www.w3.org/2000/svg">
<path opacity="0.2" fill-rule="evenodd" clip-rule="evenodd" d="M6.58854 2.49686C6.66391 2.46627 6.83694 2.3999 7.04624 2.3999C7.22525 2.3999 7.36604 2.44984 7.43424 2.47703C7.51398 2.50883 7.5828 2.54619 7.63513 2.57723C7.73989 2.63936 7.84397 2.71551 7.93803 2.78943C8.12948 2.93989 8.35528 3.14147 8.59347 3.36642C9.0738 3.82006 9.65914 4.42074 10.2232 5.02878C10.7874 5.6371 11.3422 6.2656 11.7602 6.77708C11.9677 7.03097 12.1518 7.26861 12.2883 7.46673C12.3555 7.56424 12.4229 7.6691 12.4772 7.77168C12.5043 7.82285 12.5362 7.88856 12.5632 7.96304C12.5857 8.02516 12.6292 8.15762 12.6292 8.32436C12.6292 8.57524 12.5367 8.76806 12.4748 8.87412C12.4082 8.98813 12.3299 9.08116 12.2655 9.14995C12.1368 9.28738 11.9798 9.41615 11.8341 9.52669C11.5445 9.74641 11.1709 9.9893 10.8339 10.2085L10.8149 10.2208C10.4849 10.4354 10.1886 10.6286 9.96307 10.7946C10.8337 12.8277 12.1165 14.142 13.2506 14.9597C13.8652 15.4028 14.4347 15.6987 14.867 15.8812C15.0395 15.954 15.1868 16.0074 15.303 16.0444C15.3094 16.0378 15.316 16.031 15.3228 16.0239C15.4988 15.84 15.7091 15.5845 15.9504 15.2903L15.9646 15.2729C16.1881 15.0004 16.4403 14.6929 16.6692 14.4537C16.7853 14.3323 16.9209 14.2013 17.0648 14.0945C17.1681 14.0178 17.446 13.8191 17.817 13.8191C18.0631 13.8191 18.266 13.9155 18.3304 13.9461L18.3328 13.9473C18.4347 13.9957 18.5376 14.0558 18.6323 14.1155C18.8243 14.2364 19.0509 14.3987 19.2902 14.5802C19.7724 14.946 20.3596 15.4311 20.9258 15.9252C21.4916 16.419 22.0507 16.9343 22.4739 17.362C22.6834 17.5739 22.8739 17.7786 23.0177 17.9563C23.0883 18.0436 23.1632 18.1434 23.2251 18.247L23.2273 18.2507C23.265 18.3137 23.3999 18.539 23.3999 18.83C23.3999 19.017 23.3476 19.1746 23.3207 19.2499C23.2867 19.3446 23.2442 19.4376 23.2018 19.5221C23.1163 19.6922 23.0029 19.8838 22.8763 20.0806C22.6214 20.4768 22.2786 20.9472 21.908 21.3991C21.5398 21.8481 21.1241 22.3033 20.7214 22.6552C20.5208 22.8304 20.3033 22.9979 20.0801 23.1262C19.881 23.2406 19.5902 23.3755 19.2544 23.3838C14.91 23.6251 10.6958 21.1423 7.61768 17.8456C4.53673 14.5458 2.3999 10.226 2.3999 6.49728C2.3999 6.23982 2.50133 6.04005 2.54298 5.96208C2.59865 5.85784 2.66552 5.76228 2.72621 5.68275C2.84913 5.52168 3.00808 5.3471 3.17652 5.17517C3.51754 4.82706 3.96468 4.42187 4.41644 4.03998C4.86887 3.65753 5.34342 3.28366 5.74344 3.0006C5.9417 2.8603 6.13625 2.73189 6.30869 2.63464C6.39415 2.58644 6.49005 2.53683 6.58854 2.49686ZM15.155 16.1821C15.1317 16.1994 15.1337 16.1941 15.1576 16.1802C15.1567 16.1808 15.1558 16.1815 15.155 16.1821ZM9.69316 11.0172C9.69315 11.0172 9.6937 11.0165 9.69491 11.0152C9.69378 11.0165 9.69317 11.0172 9.69316 11.0172ZM4.20291 6.71752C4.28666 9.80208 6.11111 13.5945 8.93334 16.6171C11.8141 19.7025 15.5415 21.7822 19.1429 21.5872C19.1529 21.5823 19.1663 21.5753 19.1831 21.5656C19.2673 21.5172 19.3864 21.4313 19.537 21.2997C19.8367 21.0378 20.182 20.6652 20.5162 20.2576C20.848 19.8531 21.1491 19.4385 21.3625 19.1068C21.4053 19.0403 21.4432 18.9792 21.4762 18.924C21.3993 18.8392 21.3051 18.74 21.1942 18.6279C20.8125 18.2421 20.2887 17.7582 19.7423 17.2814C19.1963 16.8049 18.642 16.3478 18.2023 16.0142C18.0859 15.9259 17.9812 15.8491 17.8894 15.7843C17.7309 15.9585 17.5478 16.1811 17.3421 16.4318L17.3279 16.4491C17.1044 16.7217 16.8522 17.0291 16.6233 17.2683C16.5072 17.3897 16.3715 17.5208 16.2277 17.6275C16.1244 17.7043 15.8465 17.903 15.4755 17.903C15.2793 17.903 15.056 17.8479 14.8865 17.7989C14.6846 17.7406 14.4407 17.6551 14.1669 17.5395C13.6188 17.3081 12.9297 16.9474 12.198 16.4198C10.73 15.3615 9.08405 13.6262 8.07611 10.9226L8.01941 10.7705V10.6082C8.01941 10.3573 8.11185 10.1645 8.17379 10.0584C8.24037 9.94443 8.3187 9.8514 8.3831 9.78261C8.51175 9.64517 8.66878 9.5164 8.81448 9.40586C9.10411 9.18615 9.47766 8.94325 9.81473 8.72408L9.83367 8.71177C10.1214 8.52467 10.3835 8.35383 10.5954 8.20309C10.5283 8.11654 10.4518 8.02058 10.3664 7.91609C9.97953 7.44266 9.4514 6.8436 8.90348 6.2529C8.3553 5.66193 7.79918 5.09214 7.35756 4.67506C7.21374 4.53923 7.08762 4.42489 6.98167 4.33369C6.92206 4.37315 6.85577 4.41856 6.78319 4.46992C6.43687 4.71499 6.00411 5.05483 5.57849 5.41463C5.1522 5.77499 4.75056 6.14059 4.46231 6.43482C4.34902 6.55047 4.26298 6.64524 4.20291 6.71752ZM10.9554 7.91535C10.9554 7.91536 10.9549 7.91603 10.9537 7.91737C10.9548 7.91601 10.9554 7.91533 10.9554 7.91535ZM18.1375 15.54C18.1608 15.5227 18.1588 15.528 18.1349 15.5419C18.1358 15.5412 18.1367 15.5406 18.1375 15.54ZM17.5663 15.576C17.5454 15.5679 17.5421 15.5644 17.5607 15.5732C17.5621 15.5739 17.564 15.5749 17.5663 15.576ZM19.1193 21.5975C19.1193 21.5975 19.1202 21.5971 19.1222 21.5965C19.1202 21.5972 19.1193 21.5975 19.1193 21.5975Z"/>
<path fill-rule="evenodd" clip-rule="evenodd" d="M5.38859 1.29691C5.46396 1.26632 5.63699 1.19995 5.84629 1.19995C6.0253 1.19995 6.16609 1.24989 6.23429 1.27708C6.31403 1.30888 6.38285 1.34624 6.43518 1.37728C6.53994 1.43941 6.64402 1.51556 6.73808 1.58948C6.92953 1.73994 7.15533 1.94152 7.39352 2.16647C7.87384 2.62011 8.45919 3.22079 9.0232 3.82883C9.58747 4.43715 10.1423 5.06565 10.5603 5.57713C10.7677 5.83102 10.9519 6.06866 11.0884 6.26678C11.1555 6.36429 11.223 6.46915 11.2772 6.57173C11.3043 6.6229 11.3362 6.68861 11.3632 6.76309C11.3858 6.82521 11.4292 6.95767 11.4292 7.1244C11.4292 7.37529 11.3368 7.56811 11.2748 7.67417C11.2083 7.78818 11.1299 7.88121 11.0655 7.95C10.9369 8.08743 10.7799 8.2162 10.6342 8.32674C10.3445 8.54645 9.97097 8.78935 9.6339 9.00852L9.61497 9.02083C9.28497 9.23542 8.98868 9.4286 8.76312 9.59463C9.63376 11.6277 10.9165 12.9421 12.0507 13.7597C12.6652 14.2028 13.2347 14.4987 13.6671 14.6813C13.8395 14.7541 13.9868 14.8074 14.1031 14.8444C14.1095 14.8379 14.1161 14.831 14.1229 14.8239C14.2988 14.64 14.5091 14.3845 14.7504 14.0903L14.7647 14.0729C14.9882 13.8004 15.2403 13.493 15.4692 13.2538C15.5854 13.1324 15.721 13.0013 15.8648 12.8946C15.9682 12.8179 16.246 12.6192 16.617 12.6192C16.8631 12.6192 17.0661 12.7156 17.1305 12.7462L17.1329 12.7473C17.2347 12.7957 17.3376 12.8559 17.4323 12.9155C17.6243 13.0364 17.851 13.1987 18.0902 13.3802C18.5725 13.7461 19.1597 14.2311 19.7259 14.7252C20.2917 15.219 20.8507 15.7343 21.2739 16.1621C21.4835 16.3739 21.674 16.5786 21.8177 16.7564C21.8883 16.8436 21.9632 16.9434 22.0251 17.047L22.0273 17.0507C22.065 17.1137 22.2 17.339 22.2 17.6301C22.2 17.8171 22.1477 17.9746 22.1207 18.0499C22.0868 18.1446 22.0442 18.2377 22.0018 18.3221C21.9164 18.4922 21.8029 18.6839 21.6764 18.8806C21.4215 19.2769 21.0787 19.7473 20.708 20.1992C20.3398 20.6481 19.9241 21.1033 19.5214 21.4552C19.3208 21.6305 19.1033 21.798 18.8802 21.9262C18.6811 22.0407 18.3903 22.1755 18.0544 22.1838C13.7101 22.4252 9.49586 19.9423 6.41773 16.6456C3.33678 13.3459 1.19995 9.02603 1.19995 5.29733C1.19995 5.03987 1.30138 4.8401 1.34303 4.76213C1.3987 4.65789 1.46556 4.56233 1.52626 4.4828C1.64918 4.32173 1.80813 4.14715 1.97656 3.97521C2.31759 3.62711 2.76473 3.22192 3.21649 2.84003C3.66892 2.45758 4.14347 2.08371 4.54349 1.80065C4.74175 1.66035 4.9363 1.53194 5.10874 1.43469C5.1942 1.38649 5.2901 1.33688 5.38859 1.29691ZM13.9551 14.9822C13.9317 14.9995 13.9338 14.9941 13.9577 14.9802C13.9568 14.9809 13.9559 14.9815 13.9551 14.9822ZM8.49321 9.81726C8.49319 9.81724 8.49375 9.81657 8.49496 9.81524C8.49383 9.81659 8.49322 9.81727 8.49321 9.81726ZM3.00296 5.51757C3.08671 8.60213 4.91116 12.3945 7.73339 15.4172C10.6142 18.5026 14.3415 20.5823 17.9429 20.3872C17.953 20.3823 17.9663 20.3753 17.9832 20.3657C18.0673 20.3173 18.1864 20.2314 18.337 20.0998C18.6367 19.8379 18.982 19.4652 19.3163 19.0577C19.6481 18.6532 19.9491 18.2386 20.1625 17.9068C20.2053 17.8404 20.2432 17.7793 20.2763 17.724C20.1994 17.6392 20.1052 17.5401 19.9943 17.428C19.6126 17.0422 19.0887 16.5583 18.5423 16.0814C17.9963 15.6049 17.4421 15.1479 17.0023 14.8143C16.886 14.726 16.7812 14.6491 16.6895 14.5843C16.5309 14.7585 16.3478 14.9811 16.1422 15.2318L16.1279 15.2492C15.9044 15.5217 15.6523 15.8292 15.4234 16.0684C15.3072 16.1898 15.1716 16.3209 15.0278 16.4276C14.9244 16.5043 14.6465 16.703 14.2756 16.703C14.0794 16.703 13.856 16.6479 13.6865 16.599C13.4847 16.5407 13.2407 16.4551 12.967 16.3395C12.4189 16.1081 11.7298 15.7474 10.998 15.2198C9.53003 14.1615 7.8841 12.4263 6.87616 9.72264L6.81946 9.57055V9.40825C6.81946 9.15736 6.9119 8.96455 6.97384 8.85848C7.04042 8.74448 7.11875 8.65144 7.18315 8.58265C7.3118 8.44522 7.46883 8.31645 7.61453 8.20591C7.90415 7.9862 8.27771 7.7433 8.61478 7.52413L8.63371 7.51182C8.92144 7.32472 9.18355 7.15388 9.39549 7.00314C9.32839 6.91659 9.25186 6.82063 9.16647 6.71614C8.77958 6.24271 8.25145 5.64364 7.70353 5.05295C7.15535 4.46198 6.59923 3.89219 6.15761 3.47511C6.01378 3.33928 5.88767 3.22494 5.78172 3.13374C5.72211 3.17319 5.65582 3.21861 5.58324 3.26997C5.23692 3.51504 4.80416 3.85488 4.37853 4.21468C3.95224 4.57504 3.55061 4.94064 3.26236 5.23487C3.14907 5.35052 3.06303 5.44529 3.00296 5.51757ZM9.75548 6.7154C9.75549 6.71541 9.75493 6.71608 9.75372 6.71742C9.75485 6.71606 9.75546 6.71538 9.75548 6.7154ZM16.9375 14.34C16.9608 14.3227 16.9588 14.328 16.9349 14.342C16.9358 14.3413 16.9367 14.3406 16.9375 14.34ZM16.3664 14.3761C16.3455 14.368 16.3421 14.3645 16.3607 14.3733C16.3622 14.374 16.3641 14.3749 16.3664 14.3761ZM17.9193 20.3975C17.9193 20.3975 17.9203 20.3971 17.9222 20.3965C17.9203 20.3973 17.9193 20.3976 17.9193 20.3975Z"/>
</svg>
