<svg width="730" height="521" viewBox="0 0 730 521" fill="none" xmlns="http://www.w3.org/2000/svg">
<path d="M113.437 472.426L60.5453 433.833C59.0248 432.724 59.7391 430.319 61.6187 430.22L233.889 421.123C236.148 421.003 236.838 424.138 234.737 424.977L115.358 472.668C114.719 472.923 113.993 472.832 113.437 472.426Z" fill="#FFCFEC"/>
<path d="M642.663 204.072L517.834 303.902C516.341 305.096 517.213 307.503 519.124 307.464L535.472 307.125C535.756 307.119 536.035 307.053 536.291 306.931L705.695 226.192C707.34 225.408 707.164 223.011 705.422 222.475L644.501 203.723C643.868 203.528 643.18 203.659 642.663 204.072Z" fill="#D7CFFF"/>
<path d="M175.909 75.4038L250.43 205.314C250.685 205.758 250.76 206.282 250.64 206.779L245.698 227.254C245.33 228.781 243.425 229.307 242.326 228.185L71.7965 54.2124C70.3953 52.7828 71.7305 50.4094 73.6798 50.8649L174.629 74.4514C175.17 74.5776 175.633 74.9226 175.909 75.4038Z" fill="#CFE2FF"/>
<path fill-rule="evenodd" clip-rule="evenodd" d="M218.177 210.476C218.392 210.228 218.356 209.851 218.099 209.647L16.4488 49.6296C16.2068 49.4375 15.8563 49.4704 15.6542 49.7042C15.4398 49.9523 15.4751 50.329 15.732 50.5329L217.383 210.551C217.625 210.743 217.975 210.71 218.177 210.476Z" fill="#D7CFFF"/>
<path fill-rule="evenodd" clip-rule="evenodd" d="M430.486 203.027C430.711 203.267 431.089 203.271 431.319 203.037L611.715 19.3916C611.932 19.1711 611.936 18.8192 611.725 18.5935C611.501 18.3541 611.122 18.3495 610.892 18.5835L430.496 202.229C430.28 202.45 430.275 202.802 430.486 203.027Z" fill="#D7CFFF"/>
<path d="M221.678 437.247L167.08 473.158C165.376 474.278 166.245 476.931 168.281 476.826L196.589 475.378C197.176 475.348 197.72 475.061 198.077 474.594L224.367 440.131C225.732 438.342 223.559 436.01 221.678 437.247Z" fill="#FFE0CF"/>
<path d="M679.835 173.535L695.82 176.737C696.449 176.863 697.101 176.68 697.572 176.243L712.328 162.563C713.498 161.479 712.99 159.529 711.441 159.153L696.04 155.41C695.388 155.251 694.7 155.43 694.208 155.886L678.869 170.107C677.672 171.217 678.236 173.215 679.835 173.535Z" fill="#CFE2FF"/>
<path d="M506.272 110.843L499.963 87.5114C499.816 86.9646 499.907 86.3806 500.214 85.9047L518.889 56.9746C519.807 55.5533 521.965 55.8422 522.476 57.4547L529.516 79.6532C529.696 80.2219 529.613 80.8413 529.29 81.3425L509.883 111.405C508.943 112.861 506.724 112.515 506.272 110.843Z" fill="#FFE0CF"/>
<path d="M170.79 56.8224L160.104 51.5616C159.595 51.3114 159.217 50.8574 159.063 50.3124L154.151 32.9732C153.69 31.3455 155.332 29.9162 156.881 30.5974L167.386 35.2188C167.932 35.459 168.342 35.9304 168.505 36.5044L173.598 54.4829C174.07 56.1495 172.344 57.5874 170.79 56.8224Z" fill="#FFCFEC"/>
<path d="M577.777 304.754L588.988 323.282C589.32 323.832 589.896 324.188 590.536 324.24L616.841 326.385C618.43 326.515 619.525 324.823 618.755 323.427L608.597 304.984C608.274 304.396 607.677 304.01 607.008 303.955L579.65 301.725C578.024 301.592 576.932 303.358 577.777 304.754Z" fill="#CFE2FF"/>
<path fill-rule="evenodd" clip-rule="evenodd" d="M489.728 330.714C489.837 331.023 490.182 331.179 490.487 331.056L729.332 235.027C729.618 234.912 729.763 234.591 729.66 234.3C729.551 233.991 729.206 233.835 728.902 233.957L490.056 329.986C489.77 330.102 489.625 330.422 489.728 330.714Z" fill="#D7CFFF"/>
</svg>
