<svg width="108" height="100" viewBox="0 0 108 100" fill="none" xmlns="http://www.w3.org/2000/svg">
<path fill-rule="evenodd" clip-rule="evenodd" d="M3.11494 46.3059C1.39461 46.3059 0 47.7005 0 49.4208V54.0933C0 55.8136 1.39461 57.2082 3.11494 57.2082H4.15325V94.0683C4.15325 95.7886 5.54786 97.1832 7.26819 97.1832H65.9329C67.6532 97.1832 69.0478 95.7886 69.0478 94.0683V57.2082H70.0861C71.8064 57.2082 73.201 55.8136 73.201 54.0933V49.4208C73.201 47.7005 71.8064 46.3059 70.0861 46.3059H3.11494Z" fill="white"/>
<path opacity="0.15" d="M68.0093 57.2082L68.0093 62.3998L5.19135 62.3998L5.19135 57.2082L68.0093 57.2082Z" fill="#232938"/>
<path opacity="0.15" d="M68.0093 94.0683L68.0093 96.1449L5.19135 96.1449L5.19135 94.0683L68.0093 94.0683Z" fill="#232938"/>
<path d="M28.5537 56.1699H45.1667V97.1832H28.5537V56.1699Z" fill="#CFE2FF"/>
<path opacity="0.8" d="M29.5918 57.2082H31.6684V96.1449H29.5918V57.2082Z" fill="white"/>
<path d="M26.2174 25.5396C32.4472 24.2936 33.6817 35.3362 34.5469 41.9987C35.3524 41.8579 36.2905 41.8093 37.3792 41.893C37.2927 35.4036 39.4558 22.84 48.8006 24.5013C52.4347 25.28 52.9539 28.9141 55.2901 30.212C57.6263 31.5099 61.52 35.9227 57.8859 40.5951C54.9786 44.333 47.5028 45.7867 44.1282 46.0463L41.792 45.2675L30.111 45.5271C29.8514 46.2193 28.6574 47.3961 25.9578 46.5654C25.3348 46.1501 20.5066 44.3157 18.1704 43.4505C16.1803 42.9313 13.9653 43.0352 12.7193 39.2972C11.1618 34.6248 15.8342 32.2886 17.9109 31.7695C19.5722 31.3541 21.1988 29.5198 21.8045 28.6545C23.0505 26.1626 25.2656 25.5396 26.2174 25.5396Z" fill="#CFE2FF"/>
<path fill-rule="evenodd" clip-rule="evenodd" d="M43.0788 27.4151C45.416 25.432 48.1162 25.6551 50.0714 26.6327C50.3278 26.7609 50.4318 27.0728 50.3036 27.3292C50.1753 27.5857 49.8635 27.6896 49.607 27.5614C47.9281 26.722 45.6964 26.5558 43.7505 28.2068C41.7689 29.8882 39.9704 33.5425 39.4547 40.6328C39.4339 40.9187 39.1852 41.1337 38.8993 41.1129C38.6133 41.0921 38.3983 40.8434 38.4191 40.5574C38.9418 33.3709 40.7774 29.3677 43.0788 27.4151ZM14.277 35.3204C14.5598 35.3675 14.5767 35.7252 14.5295 36.008C13.7579 37.397 13.7684 38.3384 14.8238 39.6461C15.9148 40.9979 18.1863 42.3887 22.7306 43.7313L22.7392 43.7339L22.7477 43.7367C23.7837 44.082 26.2048 44.9403 27.4881 45.5819C27.7445 45.7101 27.8485 46.022 27.7203 46.2784C27.592 46.5349 27.2802 46.6388 27.0237 46.5106C25.8183 45.9079 23.4726 45.0731 22.4278 44.7245C17.8404 43.3683 15.3121 41.9045 14.0158 40.2982C12.683 38.6467 12.7196 37.1374 13.5053 35.8373C13.5525 35.5545 13.9942 35.2732 14.277 35.3204Z" fill="white"/>
<path d="M28.0347 48.3825C28.0347 46.6622 29.4293 45.2676 31.1496 45.2676H42.571C44.2914 45.2676 45.686 46.6622 45.686 48.3825V55.1315C45.686 56.8519 44.2914 58.2465 42.571 58.2465H31.1496C29.4293 58.2465 28.0347 56.8519 28.0347 55.1315V48.3825Z" fill="#CFE2FF"/>
<path opacity="0.8" d="M31.1494 46.3059C30.0025 46.3059 29.0728 47.2356 29.0728 48.3825V55.1316C29.0728 56.2785 30.0025 57.2082 31.1494 57.2082V46.3059Z" fill="white"/>
<path fill-rule="evenodd" clip-rule="evenodd" d="M25.5616 46.3059H28.8276C29.0662 46.0393 29.35 45.814 29.667 45.6422C29.9886 44.4746 31.2104 42.749 33.9673 42.1061C33.5038 38.8207 33.0072 34.2032 31.3984 30.4907C30.5528 28.5392 30.599 28.4368 29.4701 27.3466C28.3531 26.268 27.1429 25.78 25.8001 26.0486L25.7496 26.0587L25.6982 26.0587C24.9094 26.0587 22.8937 26.5988 21.7498 28.8867L21.7327 28.9209L21.7107 28.9522C21.387 29.4147 20.8029 30.12 20.081 30.7672C19.3667 31.4076 18.4691 32.0352 17.5177 32.2731C16.5425 32.5169 14.9488 33.1944 13.8003 34.3429C12.6793 35.4639 11.9874 37.017 12.6927 39.133C13.4981 41.0311 13.6109 40.9461 14.5364 41.8098C15.9595 42.7975 17.3604 43.2217 18.3015 43.4672L18.3265 43.4738L18.3508 43.4828C19.5209 43.9161 21.3152 44.5923 22.8962 45.2125C23.6863 45.5225 24.4261 45.8196 25.0089 46.0661C25.2067 46.1498 25.3936 46.2304 25.5616 46.3059ZM22.8391 46.3059C22.733 46.264 22.6255 46.2217 22.517 46.1791C20.9547 45.5662 19.1805 44.8975 18.014 44.4653C16.9643 44.1879 15.3509 43.5426 13.8315 42.4882C12.7193 41.5502 12.4598 41.0311 11.7077 39.4614C10.8555 36.905 11.721 34.9538 13.0661 33.6087C14.3835 32.2913 16.1644 31.5411 17.2658 31.2658C17.9757 31.0883 18.722 30.5911 19.3879 29.9941C20.0299 29.4185 20.5521 28.791 20.839 28.3868C22.1693 25.7615 24.5141 25.0426 25.6455 25.0209C27.397 24.6888 28.9203 25.3722 30.1914 26.5997C31.4625 27.8272 31.4821 28.0724 32.3511 30.0778C34.0037 33.8916 34.5172 38.5888 34.9908 41.9285C35.5598 41.861 36.1809 41.8359 36.8582 41.862C36.8776 38.6016 37.435 34.0735 39.0804 30.4453C39.9526 28.5221 41.1473 26.8144 42.7668 25.6971C44.4009 24.5696 46.4282 24.0713 48.8916 24.5092L48.9005 24.5108L48.9095 24.5128C50.9109 24.9416 52.0458 26.1673 52.9474 27.3696C53.1328 27.6168 53.3013 27.8524 53.4638 28.0799C53.7111 28.4259 53.9452 28.7534 54.2049 29.0739C54.6194 29.5851 55.0408 29.9987 55.5423 30.2773C56.7951 30.9733 58.4393 32.481 59.3023 34.4487C60.1822 36.4548 60.2413 38.9315 58.2957 41.433C56.7437 43.4284 54.0232 44.7663 51.3429 45.6379C50.5421 45.8983 49.7364 46.1197 48.9543 46.3059H70.0861C71.8064 46.3059 73.201 47.7005 73.201 49.4208V54.0932C73.201 55.8135 71.8064 57.2081 70.0861 57.2081H69.0478V94.0683C69.0478 95.7886 67.6532 97.1832 65.9329 97.1832H7.26819C5.54785 97.1832 4.15325 95.7886 4.15325 94.0683C4.15325 81.7816 4.15325 69.4949 4.15325 57.2081H3.11494C1.39461 57.2081 0 55.8135 0 54.0932V53.5741V52.5357V49.4208C0 47.7005 1.39461 46.3059 3.11494 46.3059H22.8391ZM1.03831 52.5357V49.4208C1.03831 48.2739 1.96805 47.3442 3.11494 47.3442L25.4387 47.3442H25.9578H26.9961L28.2117 47.3442C28.0969 47.6689 28.0344 48.0184 28.0344 48.3825V55.1315C28.0344 55.4956 28.0969 55.8451 28.2117 56.1698L4.15325 56.1698L3.11494 56.1698C1.96805 56.1698 1.03831 55.2401 1.03831 54.0932V52.5357ZM5.19156 57.2081H28.5536V96.1449H7.26819C6.1213 96.1449 5.19156 95.2151 5.19156 94.0683C5.19156 81.7816 5.19156 69.4949 5.19156 57.2081ZM44.1283 57.8297V96.1449H29.5919V57.8297C30.0501 58.0948 30.582 58.2465 31.1494 58.2465H42.5708C43.1382 58.2465 43.6701 58.0948 44.1283 57.8297ZM45.1666 96.1449V57.2081H68.0095V94.0683C68.0095 95.2151 67.0798 96.1449 65.9329 96.1449H45.1666ZM69.0478 56.1698L70.0861 56.1698C71.233 56.1698 72.1627 55.2401 72.1627 54.0932V49.4208C72.1627 48.2739 71.233 47.3442 70.0861 47.3442H45.5085C45.6233 47.6689 45.6858 48.0184 45.6858 48.3825V55.1315C45.6858 55.4956 45.6233 55.8451 45.5085 56.1698L69.0478 56.1698ZM31.1219 46.306C29.8444 46.3205 29.3506 47.3442 29.3506 47.3442C29.1739 47.6496 29.0728 48.0042 29.0728 48.3825V55.1315C29.0728 55.5098 29.1739 55.8644 29.3506 56.1698C29.3506 56.1698 29.8515 57.2081 31.1494 57.2081H36.8601H42.5708C43.8687 57.2081 44.3696 56.1698 44.3696 56.1698C44.5463 55.8644 44.6474 55.5098 44.6474 55.1315V48.3825C44.6474 48.0042 44.5463 47.6496 44.3696 47.3442C44.3293 47.2744 44.2677 47.1823 44.1842 47.0818L44.1681 47.083L44.167 47.0612C43.8811 46.7248 43.3559 46.3059 42.5708 46.3059H41.7182L41.7135 46.3077L31.1219 46.306ZM44.5821 46.0038C46.2439 45.8374 48.6582 45.4191 51.0218 44.6505C53.6498 43.7959 56.1209 42.538 57.4761 40.7955C59.1647 38.6245 59.094 36.5587 58.3515 34.8658C57.5921 33.1345 56.1214 31.7868 55.038 31.1849C54.3714 30.8146 53.8518 30.2871 53.3983 29.7277C53.1252 29.3907 52.8527 29.0103 52.5871 28.6395C52.4275 28.4166 52.2702 28.1971 52.1168 27.9926C51.2679 26.8606 50.3279 25.8814 48.7007 25.5299C46.496 25.14 44.7514 25.5893 43.3564 26.5517C41.9447 27.5256 40.8519 29.0529 40.026 30.8741C38.452 34.3449 37.9087 38.7474 37.8962 41.9256C39.0281 42.0677 40.0492 42.6555 40.8047 43.3203C41.2431 43.7061 41.6093 44.1324 41.8697 44.5436C42.0158 44.7743 42.142 45.0212 42.2215 45.2676H42.5708C43.3375 45.2676 44.0394 45.5445 44.5821 46.0038ZM41.0919 45.2676C41.063 45.2145 41.03 45.1583 40.9925 45.0991C40.7905 44.7802 40.4915 44.4278 40.1188 44.0998C39.3653 43.4367 38.3792 42.9313 37.3792 42.9313H37.3593L37.3394 42.9297C36.2887 42.8489 35.3943 42.8967 34.6364 43.0292C32.5104 43.4008 31.4299 44.4421 30.947 45.274C31.0139 45.2697 31.0814 45.2676 31.1494 45.2676H41.0919Z" fill="#232938"/>
<path fill-rule="evenodd" clip-rule="evenodd" d="M49.096 15.0079C48.0102 15.0079 47.1299 15.8882 47.1299 16.9741V19.9234C47.1299 21.0092 48.0102 21.8895 49.096 21.8895H49.7514V45.1558C49.7514 46.2417 50.6317 47.122 51.7176 47.122H88.7471C89.833 47.122 90.7132 46.2417 90.7132 45.1558V21.8895H91.3686C92.4545 21.8895 93.3348 21.0092 93.3348 19.9234V16.9741C93.3348 15.8882 92.4545 15.0079 91.3686 15.0079H49.096Z" fill="white"/>
<path opacity="0.15" d="M90.0576 21.8895L90.0576 25.1665L50.4066 25.1665L50.4066 21.8895L90.0576 21.8895Z" fill="#232938"/>
<path opacity="0.15" d="M90.0576 45.1559L90.0576 46.4667L50.4066 46.4667L50.4066 45.1559L90.0576 45.1559Z" fill="#232938"/>
<path d="M65.1528 21.2341H75.6391V47.122H65.1528V21.2341Z" fill="#FFCFEC"/>
<path opacity="0.8" d="M65.8081 21.8895H67.1189V46.4666H65.8081V21.8895Z" fill="white"/>
<path d="M62.3674 0.589397C66.2998 -0.19707 68.3897 8.08382 68.9359 12.2892C69.4443 12.2004 70.0364 12.1697 70.7236 12.2225C70.669 8.12637 72.0344 0.196165 77.9329 1.24479C80.2268 1.73633 80.5545 4.03019 82.0291 4.84943C83.5037 5.66866 85.9614 8.45407 83.6676 11.4033C81.8325 13.7627 77.1137 14.6803 74.9837 14.8441L73.509 14.3526L66.1359 14.5164C65.9721 14.9533 65.2184 15.6961 63.5143 15.1718C63.1211 14.9096 60.0736 13.7518 58.5989 13.2056C57.3428 12.8779 54.6338 11.6327 53.8474 9.2733C52.8643 6.32405 55.8135 4.84943 57.1243 4.52173C58.1729 4.25958 59.1997 3.10172 59.582 2.55557C60.3685 0.982632 61.7667 0.589397 62.3674 0.589397Z" fill="#FFCFEC"/>
<path fill-rule="evenodd" clip-rule="evenodd" d="M74.3213 3.08394C75.7966 1.8322 77.501 1.97307 78.7351 2.59011C78.897 2.67104 78.9626 2.86788 78.8816 3.02975C78.8007 3.19163 78.6039 3.25724 78.442 3.17631C77.3822 2.64646 75.9735 2.54157 74.7453 3.58368C73.4945 4.64499 72.3593 6.95165 72.0338 11.427C72.0207 11.6075 71.8637 11.7432 71.6832 11.7301C71.5027 11.717 71.367 11.56 71.3801 11.3795C71.71 6.84331 72.8687 4.3165 74.3213 3.08394ZM55.8138 7.09074C55.9923 7.12049 56.0029 7.34628 55.9732 7.5248C55.4861 8.40152 55.4928 8.99572 56.1589 9.82116C56.8475 10.6745 58.2814 11.5523 61.1497 12.3998L61.1552 12.4014L61.1605 12.4032C61.8145 12.6211 63.3427 13.1629 64.1527 13.5679C64.3146 13.6488 64.3802 13.8457 64.2992 14.0075C64.2183 14.1694 64.0215 14.235 63.8596 14.1541C63.0987 13.7736 61.6181 13.2467 60.9586 13.0267C58.063 12.1706 56.4671 11.2467 55.6489 10.2328C54.8076 9.19035 54.8307 8.23767 55.3267 7.41706C55.3564 7.23854 55.6353 7.06099 55.8138 7.09074Z" fill="white"/>
<path d="M64.8252 16.3187C64.8252 15.2328 65.7055 14.3525 66.7914 14.3525H74.0006C75.0865 14.3525 75.9668 15.2328 75.9668 16.3187V20.5787C75.9668 21.6646 75.0865 22.5449 74.0006 22.5449H66.7914C65.7055 22.5449 64.8252 21.6646 64.8252 20.5787V16.3187Z" fill="#FFCFEC"/>
<path opacity="0.8" d="M66.7915 15.0079C66.0676 15.0079 65.4807 15.5948 65.4807 16.3187V20.5787C65.4807 21.3027 66.0676 21.8895 66.7915 21.8895V15.0079Z" fill="white"/>
<path fill-rule="evenodd" clip-rule="evenodd" d="M65.2938 1.49285C64.4736 0.700804 63.4751 0.24518 62.3208 0.46012C61.5648 0.478937 60.0507 0.955054 59.189 2.64679C59.0118 2.89516 58.6911 3.2795 58.2978 3.63214C57.8836 4.00353 57.4314 4.30106 57.0135 4.40552C56.3025 4.58327 55.155 5.06588 54.3023 5.91856C53.4254 6.7955 52.8573 8.07682 53.4135 9.74559C53.849 11.0522 54.807 12.0251 55.7863 12.7048C56.7559 13.3777 57.7851 13.7905 58.4611 13.97C59.0895 14.2028 59.9949 14.5436 60.8578 14.8781H49.096C47.9384 14.8781 47 15.8165 47 16.9741V19.9233C47 21.0809 47.9384 22.0193 49.096 22.0193H49.6216V45.1558C49.6216 46.3134 50.5599 47.2518 51.7175 47.2518H88.747C89.9045 47.2518 90.8429 46.3134 90.8429 45.1558V22.0193H91.3685C92.5261 22.0193 93.4645 21.0809 93.4645 19.9233V16.9741C93.4645 15.8165 92.5261 14.8781 91.3685 14.8781H79.0306C79.2128 14.8251 79.3955 14.769 79.5778 14.7097C81.2762 14.1574 83.0246 13.3029 84.0288 12.0118C85.289 10.3915 85.2531 8.77681 84.6806 7.47148C84.1229 6.19986 83.0634 5.22822 82.2514 4.77713C81.9555 4.61274 81.7018 4.36597 81.4451 4.04925C81.284 3.85054 81.1382 3.64665 80.9818 3.42773C80.8793 3.28438 80.7723 3.1346 80.6544 2.97735C80.0788 2.20996 79.3383 1.40567 78.0289 1.12507L78.0233 1.12379L78.0131 1.12198C76.4265 0.839912 75.1118 1.1606 74.0507 1.89271C73.0025 2.61588 72.2357 3.71636 71.6794 4.94304C70.6527 7.20683 70.2928 10.0121 70.2663 12.0691C69.9323 12.0612 69.6195 12.0732 69.3268 12.1023C69.0193 9.99658 68.3704 7.08775 67.3414 4.71308C66.7899 3.44051 66.1139 2.28479 65.2938 1.49285ZM62.4573 1.36561C63.2514 1.20679 63.974 1.4903 64.6583 2.15102C65.3531 2.82197 65.971 3.85184 66.5019 5.07688C67.4922 7.36235 68.1261 10.2 68.425 12.2589C66.7588 12.686 65.9777 13.7386 65.746 14.5017C65.569 14.6038 65.4084 14.7308 65.269 14.8781H63.2922C63.1917 14.8333 63.0816 14.7859 62.9661 14.7371C62.5967 14.5808 62.1285 14.3928 61.6294 14.197C60.6305 13.8051 59.497 13.378 58.758 13.1042L58.7366 13.0963L58.7146 13.0906C58.134 12.9391 57.1927 12.5671 56.308 11.9531C55.4223 11.3384 54.6325 10.5091 54.2815 9.45625C54.0664 8.81075 54.0663 8.25847 54.2005 7.78542C54.3351 7.31116 54.6071 6.90773 54.9493 6.56554C55.6532 5.86167 56.6357 5.44311 57.2354 5.29317C57.8662 5.13549 58.4517 4.72303 58.9086 4.31339C59.3722 3.8977 59.7474 3.44493 59.957 3.14554L59.9763 3.11792L59.9914 3.08777C60.688 1.69459 61.9106 1.3745 62.3676 1.3745L62.4129 1.3745L62.4573 1.36561ZM74.5703 2.64583C75.4208 2.05907 76.4862 1.78168 77.845 2.0214C78.8246 2.23377 79.3933 2.82094 79.9224 3.52633C80.0182 3.65406 80.1166 3.79147 80.2175 3.93239L80.2191 3.93456C80.3858 4.16729 80.5595 4.40982 80.7343 4.62541C81.0254 4.98457 81.3657 5.33174 81.8071 5.57696C82.4697 5.94509 83.3764 6.77577 83.8427 7.83899C84.2942 8.86839 84.3403 10.121 83.3066 11.4501C82.4757 12.5183 80.9472 13.3023 79.2949 13.8396C77.8386 14.3132 76.3504 14.5748 75.311 14.6827C74.9521 14.3949 74.4964 14.2227 74.0007 14.2227H73.8718C73.8185 14.0852 73.7469 13.9509 73.6678 13.8261C73.4962 13.555 73.2567 13.2767 72.9717 13.026C72.5068 12.6169 71.8819 12.2479 71.1806 12.131C71.2007 10.1446 71.5479 7.44828 72.5126 5.32093C73.0282 4.18412 73.7052 3.24265 74.5703 2.64583ZM69.0148 13.0675C69.4814 12.9859 70.0349 12.956 70.6887 13.0063L70.7062 13.0076H70.7238C71.313 13.0076 71.9061 13.3071 72.3672 13.7128C72.5579 13.8806 72.7156 14.0579 72.8325 14.2227H66.9072C67.2421 13.7714 67.8805 13.2658 69.0148 13.0675ZM65.7708 15.7241L65.7728 15.7199L65.7747 15.7163C65.7765 15.7129 65.7795 15.7073 65.7837 15.6999C65.7922 15.685 65.8056 15.6629 65.8242 15.6358C65.8616 15.5816 65.9194 15.5085 66.0001 15.4351C66.1601 15.2894 66.41 15.1421 66.7749 15.1378L73.4833 15.1389L73.4863 15.1377H74.0007C74.4211 15.1377 74.7108 15.3489 74.8809 15.5364L74.8862 15.6381L74.96 15.6324C74.9875 15.6693 75.0087 15.7023 75.0238 15.7283C75.1242 15.9019 75.1817 16.1034 75.1817 16.3187V20.5787C75.1817 20.7941 75.1242 20.9956 75.0238 21.1691L75.0214 21.1733L75.0193 21.1777L75.0174 21.1812C75.0164 21.1832 75.015 21.1858 75.0132 21.1891C75.0118 21.1916 75.0102 21.1946 75.0083 21.1979C74.9997 21.2129 74.9861 21.2354 74.9672 21.2628C74.9292 21.3177 74.8705 21.3916 74.7887 21.4655C74.6262 21.6122 74.3722 21.7597 74.0007 21.7597H66.7915C66.42 21.7597 66.166 21.6122 66.0035 21.4655C65.9217 21.3916 65.863 21.3177 65.825 21.2628C65.8061 21.2354 65.7925 21.2129 65.7839 21.1979C65.7796 21.1903 65.7766 21.1847 65.7747 21.1812L65.7727 21.1773L65.7708 21.1733L65.7684 21.1691C65.668 20.9956 65.6105 20.7941 65.6105 20.5787V16.3187C65.6105 16.1034 65.668 15.9019 65.7684 15.7283L65.7708 15.7241ZM47.915 16.9741C47.915 16.3218 48.4437 15.7931 49.096 15.7931H64.762C64.7186 15.9612 64.6955 16.1373 64.6955 16.3187V20.5787C64.6955 20.7601 64.7186 20.9363 64.762 21.1043H49.096C48.4437 21.1043 47.915 20.5756 47.915 19.9233V16.9741ZM76.0967 16.3187C76.0967 16.1373 76.0736 15.9612 76.0302 15.7931H91.3685C92.0208 15.7931 92.5495 16.3218 92.5495 16.9741V19.9233C92.5495 20.5756 92.0208 21.1043 91.3685 21.1043H76.0302C76.0736 20.9363 76.0967 20.7601 76.0967 20.5787V16.3187ZM50.5365 45.1558V22.0193H65.0232V46.3368H51.7175C51.0653 46.3368 50.5365 45.808 50.5365 45.1558ZM75.769 46.3368V22.0193H89.928V45.1558C89.928 45.808 89.3992 46.3368 88.747 46.3368H75.769ZM65.9382 46.3368V22.4937C66.1989 22.61 66.4878 22.6747 66.7915 22.6747H74.0007C74.3044 22.6747 74.5933 22.61 74.854 22.4937V46.3368H65.9382Z" fill="#232938"/>
<path fill-rule="evenodd" clip-rule="evenodd" d="M93.0793 62.5648C92.991 61.7275 92.2407 61.1204 91.4035 61.2087L89.1296 61.4485C88.2924 61.5368 87.6853 62.2871 87.7736 63.1243L87.8269 63.6296L69.8884 65.5213C69.0512 65.6096 68.4441 66.3599 68.5323 67.1971L71.5432 95.7471C71.6315 96.5843 72.3817 97.1914 73.219 97.1031L91.1574 95.2114L91.2107 95.7167C91.299 96.5539 92.0493 97.161 92.8865 97.0727L95.1604 96.8329C95.9976 96.7446 96.6047 95.9944 96.5164 95.1571L93.0793 62.5648Z" fill="white"/>
<path opacity="0.15" d="M91.1045 94.7061L88.5779 94.9725L85.354 64.4013L87.8805 64.1349L91.1045 94.7061Z" fill="#232938"/>
<path opacity="0.15" d="M73.166 96.5978L72.1554 96.7044L68.9314 66.1333L69.942 66.0267L73.166 96.5978Z" fill="#232938"/>
<path d="M89.5845 75.451L90.4371 83.536L70.4774 85.6409L69.6248 77.556L89.5845 75.451Z" fill="#D7CFFF"/>
<path opacity="0.8" d="M89.1328 76.0097L89.2394 77.0203L70.2903 79.0187L70.1837 78.008L89.1328 76.0097Z" fill="white"/>
<path d="M105.275 71.6249C106.201 74.5928 99.9868 76.8775 96.7888 77.6405C96.8987 78.0253 96.9705 78.4793 96.9856 79.0135C100.139 78.6383 106.365 79.0462 106.036 83.6793C105.843 85.4878 104.101 85.927 103.59 87.1305C103.078 88.3341 101.13 90.4555 98.6697 88.9267C96.7014 87.7037 95.6103 84.1401 95.3107 82.5111L95.5698 81.3342L94.844 75.6628C94.4938 75.572 93.8598 75.0513 94.1255 73.6949C94.2957 73.3704 94.9406 70.9265 95.2418 69.7452C95.3923 68.75 96.1321 66.5602 97.8873 65.762C100.081 64.7642 101.458 66.9182 101.817 67.9022C102.105 68.6894 103.081 69.3869 103.533 69.6372C104.81 70.1157 105.227 71.1617 105.275 71.6249Z" fill="#D7CFFF"/>
<path fill-rule="evenodd" clip-rule="evenodd" d="M104.324 81.044C105.409 82.0797 105.439 83.4052 105.063 84.4069C105.014 84.5383 104.868 84.6049 104.736 84.5557C104.605 84.5064 104.538 84.36 104.588 84.2286C104.91 83.3685 104.876 82.2738 103.973 81.4116C103.053 80.5335 101.182 79.8458 97.7053 79.9587C97.565 79.9633 97.4477 79.8533 97.4431 79.713C97.4386 79.5728 97.5486 79.4554 97.6888 79.4509C101.213 79.3364 103.255 80.0243 104.324 81.044ZM99.7298 67.1004C99.7213 67.2405 99.5481 67.267 99.4081 67.2586C98.6925 66.9543 98.2349 67.0078 97.6527 67.5885C97.0508 68.1888 96.4905 69.3657 96.0703 71.6462L96.0695 71.6505L96.0686 71.6547C95.9537 72.1766 95.6603 73.399 95.4139 74.0564C95.3646 74.1878 95.2182 74.2544 95.0868 74.2051C94.9554 74.1559 94.8888 74.0095 94.9381 73.8781C95.1695 73.2605 95.4554 72.0761 95.5714 71.5497C95.996 69.2476 96.5786 67.9421 97.2938 67.2288C98.0291 66.4954 98.7655 66.4357 99.4386 66.7514C99.5786 66.7598 99.7382 66.9604 99.7298 67.1004Z" fill="white"/>
<path d="M93.3478 74.7988C94.1851 74.7105 94.9353 75.3176 95.0236 76.1548L95.6098 81.7132C95.6981 82.5505 95.091 83.3007 94.2538 83.389L90.9693 83.7354C90.132 83.8237 89.3818 83.2166 89.2935 82.3793L88.7073 76.821C88.619 75.9837 89.2261 75.2335 90.0633 75.1452L93.3478 74.7988Z" fill="#D7CFFF"/>
<path opacity="0.8" d="M94.5181 76.2081C94.4592 75.65 93.959 75.2452 93.4009 75.3041L90.1164 75.6505C89.5582 75.7093 89.1535 76.2095 89.2123 76.7677L94.5181 76.2081Z" fill="white"/>
<path fill-rule="evenodd" clip-rule="evenodd" d="M105.458 72.6858C105.526 72.3301 105.514 71.9576 105.4 71.5723C105.322 70.9818 104.826 69.846 103.443 69.3151C103.239 69.1993 102.919 68.9851 102.618 68.7129C102.299 68.4249 102.037 68.1043 101.925 67.7972C101.729 67.26 101.261 66.4095 100.529 65.8172C99.7747 65.2068 98.729 64.8693 97.4757 65.4392C96.496 65.8848 95.8197 66.7083 95.3736 67.5218C94.9322 68.3267 94.6966 69.1563 94.6126 69.6951C94.4934 70.1619 94.3223 70.8195 94.1485 71.4643L93.2085 62.5512C93.1127 61.6427 92.2985 60.9839 91.39 61.0797L89.1161 61.3195C88.2076 61.4153 87.5488 62.2294 87.6446 63.1379L87.6843 63.5142L69.8749 65.3923C68.9664 65.4881 68.3076 66.3023 68.4034 67.2108L71.4142 95.7607C71.51 96.6692 72.3242 97.3281 73.2327 97.2322L91.0421 95.3541L91.0818 95.7303C91.1776 96.6388 91.9917 97.2977 92.9002 97.2019L95.1741 96.9621C96.0826 96.8662 96.7415 96.0521 96.6456 95.1436L95.6634 85.8296C95.6953 85.9045 95.7278 85.9794 95.7612 86.0541C96.3257 87.3201 97.1296 88.6054 98.2144 89.2794C99.5761 90.1255 100.83 89.9656 101.798 89.4133C102.739 88.8763 103.406 87.9751 103.69 87.3074C103.791 87.0708 103.957 86.8582 104.18 86.6357C104.319 86.4961 104.464 86.3677 104.62 86.2292C104.722 86.1386 104.829 86.0436 104.941 85.9397C105.488 85.4319 106.054 84.7895 106.165 83.7465L106.165 83.7421L106.166 83.7331C106.214 83.0544 106.132 82.4515 105.942 81.9198C105.781 81.4695 105.543 81.0704 105.243 80.7197C104.595 79.9649 103.679 79.4608 102.685 79.1307C100.862 78.5252 98.6811 78.4728 97.0932 78.6166C97.0727 78.3788 97.0408 78.1562 96.9988 77.948C98.5963 77.5379 100.774 76.8031 102.515 75.8205C103.452 75.291 104.292 74.6736 104.84 73.9725C105.148 73.5772 105.37 73.1455 105.458 72.6858ZM104.656 71.7659C104.84 72.3535 104.684 72.924 104.235 73.5001C103.777 74.086 103.037 74.6439 102.137 75.152C100.468 76.0946 98.3481 76.8105 96.7887 77.2093C96.321 75.9754 95.4531 75.4564 94.8403 75.3344C94.7495 75.2112 94.6423 75.1015 94.5222 75.0083L94.3634 73.5027C94.3893 73.4229 94.4163 73.3361 94.4439 73.2452C94.5345 72.9473 94.6415 72.5708 94.7519 72.17C94.9729 71.3677 95.2101 70.4589 95.361 69.8667L95.3658 69.8482L95.3686 69.8293C95.4377 69.3724 95.647 68.6198 96.0467 67.891C96.4468 67.1613 97.0181 66.4907 97.7935 66.1381C98.2689 65.9219 98.6888 65.878 99.0581 65.9419C99.4287 66.0061 99.7573 66.1803 100.046 66.414C100.641 66.8952 101.041 67.6137 101.204 68.0605C101.379 68.5405 101.749 68.9623 102.103 69.2825C102.463 69.6078 102.845 69.8615 103.094 69.9997L103.119 70.0134L103.146 70.0233C104.264 70.4426 104.605 71.3486 104.641 71.6918L104.645 71.7296L104.656 71.7659ZM104.66 81.2195C105.176 81.8213 105.474 82.6123 105.401 83.6719C105.318 84.4337 104.917 84.9137 104.418 85.3772C104.328 85.4612 104.23 85.548 104.13 85.6374L104.128 85.6391L104.128 85.6391C103.962 85.7864 103.789 85.9405 103.636 86.0933C103.382 86.3482 103.139 86.6419 102.984 87.007C102.756 87.5428 102.193 88.3041 101.417 88.7465C100.669 89.1735 99.7184 89.3101 98.6196 88.6273C97.7361 88.0783 97.0103 86.9703 96.4623 85.7415C95.9821 84.6646 95.6607 83.5462 95.4927 82.7559C95.6845 82.4524 95.7794 82.0843 95.7388 81.6996L95.7304 81.6199C95.8278 81.5681 95.921 81.5044 96.0066 81.4366C96.2041 81.2803 96.401 81.0709 96.5726 80.8288C96.8482 80.44 97.0817 79.9326 97.1207 79.385C98.6495 79.242 100.739 79.2932 102.443 79.8592C103.358 80.1633 104.134 80.6064 104.66 81.2195ZM96.167 77.7726C96.2671 78.123 96.3349 78.545 96.3492 79.051L96.3496 79.0657L96.3512 79.0804C96.3981 79.5253 96.2192 79.9999 95.9463 80.3849C95.8473 80.5247 95.7407 80.6454 95.6378 80.7417L95.1682 76.2894C95.5257 76.5171 95.9349 76.9594 96.167 77.7726ZM93.8722 75.5065L93.8766 75.5081L93.8787 75.5089L93.8824 75.5104L93.8911 75.5141C93.9025 75.5191 93.9199 75.5273 93.9415 75.5391C93.9849 75.5626 94.044 75.6 94.1052 75.6545C94.2262 75.7622 94.3557 75.9367 94.3878 76.2092L94.9329 81.3866L94.9341 81.3888L94.9753 81.7801C95.0078 82.0879 94.8787 82.3179 94.7536 82.4609L94.6564 82.4763L94.6693 82.5462C94.6487 82.5646 94.6301 82.5793 94.615 82.5903C94.4934 82.6789 94.3475 82.7377 94.1868 82.7546L90.9023 83.101C90.7415 83.118 90.5866 83.0909 90.4492 83.0296L90.4447 83.0277L90.4407 83.0262L90.4401 83.026L90.4382 83.0252C90.4365 83.0246 90.4341 83.0236 90.431 83.0223C90.4294 83.0216 90.4276 83.0208 90.4256 83.0199C90.414 83.0148 90.3963 83.0065 90.3745 82.9946C90.3306 82.9707 90.2708 82.9327 90.2091 82.8774C90.0871 82.7679 89.9571 82.5903 89.9277 82.3124L89.3416 76.754C89.3123 76.4762 89.4024 76.2754 89.4989 76.1428C89.5477 76.0759 89.5982 76.0263 89.6361 75.9937C89.655 75.9775 89.6706 75.9657 89.6809 75.9582C89.686 75.9545 89.6898 75.9519 89.6921 75.9504L89.6938 75.9493L89.6944 75.949L89.698 75.9467L89.7019 75.9439C89.8235 75.8553 89.9694 75.7965 90.1301 75.7795L93.4147 75.4332C93.5754 75.4162 93.7303 75.4433 93.8678 75.5045L93.8722 75.5065ZM91.4705 61.8431C91.9574 61.7918 92.3937 62.1448 92.4451 62.6317L93.7149 74.6733C93.591 74.6577 93.4635 74.6561 93.3341 74.6697L90.0496 75.0161C89.9203 75.0297 89.7959 75.058 89.678 75.099L88.4081 63.0574C88.3567 62.5706 88.7098 62.1343 89.1967 62.0829L91.4705 61.8431ZM94.2673 83.5181C94.3966 83.5045 94.521 83.4762 94.6389 83.4352L95.8822 95.2241C95.9335 95.711 95.5805 96.1473 95.0936 96.1986L92.8197 96.4384C92.3329 96.4897 91.8966 96.1367 91.8452 95.6498L90.602 83.8609C90.7259 83.8764 90.8534 83.8781 90.9828 83.8645L94.2673 83.5181ZM69.9554 66.1558L87.7648 64.2776L88.9366 75.3889L70.2457 77.36L69.1669 67.1303C69.1155 66.6434 69.4686 66.2071 69.9554 66.1558ZM71.1255 85.7031L89.8164 83.732L90.9616 94.5906L73.1522 96.4688C72.6653 96.5201 72.229 96.1671 72.1777 95.6802L71.1255 85.7031ZM70.3262 78.1235L88.6363 76.1925C88.5765 76.3948 88.5546 76.612 88.5781 76.8346L89.1643 82.393C89.1878 82.6155 89.2544 82.8233 89.3551 83.0087L71.045 84.9397L70.3262 78.1235Z" fill="#232938"/>
</svg>
