<svg width="592" height="231" viewBox="0 0 592 231" fill="none" xmlns="http://www.w3.org/2000/svg">
<ellipse cx="296" cy="211.5" rx="296" ry="19.5" fill="url(#paint0_radial_815_2)"/>
<path fill-rule="evenodd" clip-rule="evenodd" d="M190.4 104.105C186.865 104.105 184 106.971 184 110.505V120.105C184 123.639 186.865 126.504 190.4 126.504H192.533V202.233C192.533 205.768 195.398 208.633 198.933 208.633H319.459C322.994 208.633 325.859 205.768 325.859 202.233V126.504H327.992C331.527 126.504 334.392 123.639 334.392 120.105V110.505C334.392 106.971 331.527 104.105 327.992 104.105H190.4Z" fill="white"/>
<path opacity="0.15" d="M323.726 126.504L323.726 137.17L194.666 137.17L194.666 126.504L323.726 126.504Z" fill="#232938"/>
<path opacity="0.15" d="M323.726 202.233L323.726 206.5L194.666 206.5L194.666 202.233L323.726 202.233Z" fill="#232938"/>
<path d="M242.664 124.371H276.796V208.633H242.664V124.371Z" fill="#CFE2FF"/>
<path opacity="0.8" d="M244.796 126.504H249.063V206.5H244.796V126.504Z" fill="white"/>
<path d="M237.864 61.441C250.663 58.8812 253.199 81.5681 254.977 95.2563C256.632 94.967 258.559 94.8671 260.796 95.0392C260.618 81.7066 265.062 55.8947 284.261 59.3078C291.727 60.9077 292.794 68.374 297.594 71.0405C302.393 73.707 310.393 82.7732 302.927 92.3727C296.954 100.052 281.595 103.039 274.662 103.572L269.862 101.972L245.863 102.505C245.33 103.928 242.877 106.345 237.33 104.639C236.05 103.785 226.131 100.017 221.331 98.239C217.243 97.1724 212.692 97.3857 210.132 89.7062C206.932 80.1067 216.532 75.307 220.798 74.2403C224.211 73.3871 227.553 69.6184 228.798 67.8407C231.357 62.721 235.908 61.441 237.864 61.441Z" fill="#CFE2FF"/>
<path fill-rule="evenodd" clip-rule="evenodd" d="M272.505 65.2942C277.307 61.2199 282.855 61.6784 286.872 63.6868C287.399 63.9503 287.612 64.5909 287.349 65.1178C287.085 65.6447 286.445 65.8583 285.918 65.5948C282.468 63.8702 277.883 63.5288 273.886 66.9208C269.814 70.3752 266.119 77.8831 265.06 92.45C265.017 93.0375 264.506 93.4792 263.919 93.4364C263.331 93.3937 262.889 92.8828 262.932 92.2953C264.006 77.5305 267.777 69.306 272.505 65.2942ZM213.332 81.5357C213.913 81.6325 213.948 82.3675 213.851 82.9485C212.265 85.8021 212.287 87.7362 214.455 90.4229C216.697 93.2003 221.364 96.0576 230.7 98.816L230.718 98.8212L230.735 98.827C232.864 99.5365 237.838 101.3 240.474 102.618C241.001 102.881 241.215 103.522 240.951 104.049C240.688 104.576 240.047 104.789 239.52 104.526C237.044 103.288 232.224 101.573 230.078 100.857C220.653 98.0701 215.459 95.0628 212.795 91.7626C210.057 88.3697 210.132 85.2688 211.747 82.5978C211.844 82.0168 212.751 81.4389 213.332 81.5357Z" fill="white"/>
<path d="M241.597 108.372C241.597 104.838 244.462 101.972 247.997 101.972H271.462C274.997 101.972 277.862 104.838 277.862 108.372V122.238C277.862 125.772 274.997 128.637 271.462 128.637H247.997C244.462 128.637 241.597 125.772 241.597 122.238V108.372Z" fill="#CFE2FF"/>
<path opacity="0.8" d="M247.997 104.105V104.105C245.64 104.105 243.73 106.016 243.73 108.372V122.238C243.73 124.594 245.64 126.504 247.997 126.504V126.504V104.105Z" fill="white"/>
<path fill-rule="evenodd" clip-rule="evenodd" d="M236.516 104.105H243.226C243.717 103.558 244.3 103.095 244.951 102.742C245.612 100.343 248.122 96.7979 253.786 95.477C252.834 88.7271 251.813 79.2404 248.508 71.613C246.771 67.6038 246.866 67.3934 244.546 65.1536C242.252 62.9375 239.765 61.9351 237.006 62.4868L236.903 62.5076L236.797 62.5076C235.177 62.5076 231.035 63.6172 228.685 68.3176L228.65 68.3879L228.605 68.4523C227.94 69.4025 226.74 70.8515 225.256 72.1812C223.789 73.4969 221.945 74.7863 219.99 75.275C217.987 75.7759 214.712 77.1678 212.353 79.5275C210.05 81.8305 208.628 85.0215 210.077 89.3688C211.732 93.2684 211.964 93.0939 213.865 94.8683C216.789 96.8975 219.667 97.7691 221.6 98.2735L221.652 98.2869L221.702 98.3053C224.106 99.1957 227.792 100.585 231.04 101.859C232.664 102.496 234.183 103.106 235.381 103.613C235.787 103.785 236.171 103.95 236.516 104.105ZM230.923 104.105C230.705 104.019 230.484 103.932 230.261 103.845C227.052 102.586 223.406 101.212 221.01 100.324C218.853 99.754 215.538 98.4284 212.417 96.262C210.132 94.335 209.599 93.2684 208.053 90.0434C206.303 84.7912 208.081 80.7826 210.844 78.0191C213.551 75.3125 217.21 73.7712 219.473 73.2055C220.931 72.8409 222.464 71.8194 223.832 70.5929C225.152 69.4103 226.224 68.1212 226.814 67.2906C229.547 61.897 234.364 60.42 236.689 60.3754C240.287 59.693 243.417 61.0972 246.028 63.6191C248.64 66.1409 248.68 66.6448 250.465 70.7648C253.861 78.6002 254.916 88.2506 255.889 95.112C257.058 94.9735 258.334 94.9218 259.725 94.9754C259.765 88.2769 260.91 78.974 264.291 71.5199C266.083 67.5686 268.537 64.0601 271.864 61.7646C275.222 59.4483 279.387 58.4245 284.448 59.3242L284.466 59.3275L284.485 59.3314C288.597 60.2126 290.928 62.7307 292.781 65.2007C293.162 65.7086 293.508 66.1928 293.842 66.6602C294.35 67.3711 294.83 68.0438 295.364 68.7022C296.216 69.7527 297.081 70.6022 298.112 71.1747C300.686 72.6046 304.064 75.7021 305.837 79.7448C307.644 83.8663 307.766 88.9548 303.769 94.094C300.58 98.1937 294.991 100.942 289.484 102.733C287.839 103.268 286.184 103.723 284.577 104.105H327.992C331.527 104.105 334.392 106.971 334.392 110.505V120.105C334.392 123.639 331.527 126.504 327.992 126.504H325.859V202.233C325.859 205.768 322.994 208.633 319.459 208.633H198.933C195.398 208.633 192.533 205.768 192.533 202.233C192.533 176.99 192.533 151.747 192.533 126.504H190.4C186.865 126.504 184 123.639 184 120.105V119.038V116.905V110.505C184 106.971 186.865 104.105 190.4 104.105H230.923ZM186.133 116.905V110.505C186.133 108.149 188.043 106.239 190.4 106.239L236.264 106.239H237.33H239.464L241.961 106.239C241.725 106.906 241.597 107.624 241.597 108.372V122.238C241.597 122.986 241.725 123.704 241.961 124.371L192.533 124.371L190.4 124.371C188.043 124.371 186.133 122.461 186.133 120.105V116.905ZM194.666 126.504H242.663V206.5H198.933C196.576 206.5 194.666 204.59 194.666 202.233C194.666 176.99 194.666 151.747 194.666 126.504ZM274.662 127.781V206.5H244.797V127.781C245.738 128.326 246.831 128.637 247.996 128.637H271.462C272.628 128.637 273.72 128.326 274.662 127.781ZM276.795 206.5V126.504H323.726V202.233C323.726 204.59 321.816 206.5 319.459 206.5H276.795ZM325.859 124.371L327.992 124.371C330.348 124.371 332.259 122.461 332.259 120.105V110.505C332.259 108.149 330.348 106.239 327.992 106.239H277.497C277.733 106.906 277.862 107.624 277.862 108.372V122.238C277.862 122.986 277.733 123.704 277.497 124.371L325.859 124.371ZM247.94 104.106C245.315 104.136 244.301 106.239 244.301 106.239C243.938 106.866 243.73 107.595 243.73 108.372V122.238C243.73 123.015 243.938 123.743 244.301 124.371C244.301 124.371 245.33 126.504 247.996 126.504H259.729H271.462C274.128 126.504 275.158 124.371 275.158 124.371C275.521 123.743 275.728 123.015 275.728 122.238V108.372C275.728 107.595 275.521 106.866 275.158 106.239C275.075 106.095 274.948 105.906 274.777 105.699L274.743 105.702L274.741 105.657C274.154 104.966 273.075 104.105 271.462 104.105H269.71L269.7 104.109L247.94 104.106ZM275.594 103.485C279.008 103.143 283.968 102.284 288.824 100.704C294.224 98.9486 299.3 96.3643 302.085 92.7844C305.554 88.3241 305.409 84.0798 303.883 80.6017C302.323 77.0448 299.302 74.276 297.076 73.0394C295.706 72.2786 294.639 71.1949 293.707 70.0455C293.146 69.3532 292.586 68.5717 292.04 67.8098C291.712 67.352 291.389 66.9008 291.074 66.4807C289.33 64.1552 287.399 62.1433 284.056 61.4212C279.526 60.6202 275.942 61.5431 273.076 63.5205C270.176 65.5214 267.93 68.6592 266.234 72.4009C263 79.5317 261.884 88.5766 261.858 95.1062C264.183 95.3982 266.281 96.6057 267.833 97.9715C268.734 98.7642 269.486 99.64 270.021 100.485C270.322 100.959 270.581 101.466 270.744 101.972H271.462C273.037 101.972 274.479 102.541 275.594 103.485ZM268.423 101.972C268.364 101.863 268.296 101.748 268.219 101.626C267.804 100.971 267.19 100.247 266.424 99.573C264.876 98.2107 262.85 97.1723 260.796 97.1723H260.755L260.714 97.1692C258.555 97.0031 256.718 97.1012 255.16 97.3734C250.793 98.137 248.573 100.276 247.581 101.986C247.718 101.977 247.857 101.972 247.996 101.972H268.423Z" fill="#232938"/>
<path d="M406.025 129.906H281.205V202.801C281.205 206.11 283.887 208.792 287.196 208.792H400.034C403.342 208.792 406.025 206.11 406.025 202.801V129.906Z" fill="white"/>
<path opacity="0.15" d="M282.203 202.801L282.203 206.795L403.029 206.795L403.029 202.801L282.203 202.801Z" fill="#232938"/>
<path d="M356.097 131.903H331.133V206.795H356.097V131.903Z" fill="#FFCFEC"/>
<path fill-rule="evenodd" clip-rule="evenodd" d="M329.136 131.903H283.202V202.801C283.202 205.007 284.99 206.795 287.196 206.795H329.136V131.903ZM331.133 131.903H356.097V206.795H331.133V131.903ZM358.094 206.795V131.903H404.028V202.801C404.028 205.007 402.239 206.795 400.034 206.795H358.094ZM358.094 129.906H329.136H281.205V202.801C281.205 206.11 283.887 208.792 287.196 208.792H329.136H358.094H400.034C403.342 208.792 406.025 206.11 406.025 202.801V129.906H358.094Z" fill="#232938"/>
<path opacity="0.8" d="M356.097 131.903H352.103V206.795H356.097V131.903Z" fill="white"/>
<path d="M308.825 78.7226C305.882 77.2098 302.27 78.3691 300.757 81.3119L241.864 195.876C240.351 198.818 241.511 202.43 244.453 203.943L252.446 208.052C255.389 209.565 259.001 208.406 260.514 205.463L319.407 90.8991C320.92 87.9563 319.76 84.3442 316.817 82.8314L308.825 78.7226Z" fill="white"/>
<path fill-rule="evenodd" clip-rule="evenodd" d="M243.64 196.789L302.533 82.225C303.542 80.2631 305.95 79.4902 307.912 80.4988L315.904 84.6076C317.866 85.6161 318.639 88.0242 317.631 89.9861L258.738 204.55C257.729 206.512 255.321 207.284 253.359 206.276L245.367 202.167C243.405 201.159 242.632 198.75 243.64 196.789ZM300.757 81.3119C302.27 78.3691 305.882 77.2098 308.825 78.7226L316.817 82.8314C319.76 84.3442 320.92 87.9563 319.407 90.8991L260.514 205.463C259.001 208.406 255.389 209.565 252.446 208.052L244.453 203.943C241.511 202.43 240.351 198.818 241.864 195.875L300.757 81.3119Z" fill="#232938"/>
<path d="M282.396 126.765C279.453 125.252 275.841 126.411 274.328 129.354L264.284 148.892C262.772 151.835 263.931 155.447 266.874 156.96L278.419 162.895C281.362 164.408 284.974 163.248 286.487 160.306L296.53 140.768C298.043 137.825 296.884 134.213 293.941 132.7L282.396 126.765Z" fill="#FFCFEC"/>
<path fill-rule="evenodd" clip-rule="evenodd" d="M266.061 149.805L276.104 130.267C277.113 128.305 279.521 127.533 281.483 128.541L293.028 134.476C294.99 135.485 295.763 137.893 294.754 139.855L284.711 159.393C283.702 161.354 281.294 162.127 279.332 161.119L267.787 155.184C265.825 154.175 265.052 151.767 266.061 149.805ZM274.328 129.354C275.841 126.411 279.453 125.252 282.396 126.765L293.941 132.7C296.884 134.213 298.043 137.825 296.53 140.768L286.487 160.306C284.974 163.248 281.362 164.408 278.419 162.895L266.874 156.96C263.931 155.447 262.772 151.835 264.284 148.892L274.328 129.354Z" fill="#232938"/>
<path opacity="0.8" d="M276.152 130.224V130.224C277.141 128.307 279.531 127.572 281.489 128.582L293.01 134.528C294.968 135.538 295.753 137.912 294.764 139.829V139.829L276.152 130.224Z" fill="white"/>
<path d="M418.008 107.937V92.959L387.552 122.417L418.008 107.937Z" fill="#FFCFEC"/>
<path d="M385.098 55.0606L367.227 92.0184L367.227 86.3861L381.23 39.4545L385.098 55.0606Z" fill="#D7CFFF"/>
<path d="M344.624 51.3549L339.982 35.6727L338.276 42.5582L344.624 51.3549Z" fill="#D7CFFF"/>
<path d="M314.09 61.1915L326.065 78.7774L328.532 79.3363L312.761 44.9659L314.09 61.1915Z" fill="#CFE2FF"/>
<path d="M325.781 123.924L324.688 116.614L317.001 112.64L317.773 119.784L325.781 123.924Z" fill="#FFE0CF"/>
<path d="M366.932 105.531L371.419 104.575L373.588 99.6595L369.191 100.411L366.932 105.531Z" fill="#CFE2FF"/>
<path d="M343.968 97.5764L343.574 92.5848L338.255 88.5029L338.428 93.3245L343.968 97.5764Z" fill="#FFE0CF"/>
<path fill-rule="evenodd" clip-rule="evenodd" d="M427.59 63.0649C422.566 61.9951 416.925 62.0508 412.161 63.6009C411.637 63.7716 411.35 64.335 411.521 64.8594C411.691 65.3839 412.255 65.6707 412.779 65.5C417.148 64.0783 422.425 64.007 427.174 65.0182C431.95 66.0351 436 68.1032 438.073 70.7696C442.382 76.3148 442.485 83.3954 438.401 88.008C437.038 89.4062 435.671 89.9009 434.497 89.8971C433.303 89.8932 432.193 89.3735 431.361 88.5409C430.527 87.7052 430.013 86.5929 429.974 85.4683C429.936 84.369 430.348 83.1943 431.487 82.1687C431.896 81.7996 431.929 81.1682 431.56 80.7584C431.191 80.3487 430.56 80.3157 430.15 80.6849C428.584 82.0956 427.919 83.834 427.978 85.5371C428.036 87.2148 428.792 88.7943 429.948 89.9521C431.107 91.113 432.708 91.8885 434.491 91.8942C436.29 91.9 438.162 91.1223 439.85 89.3833L439.865 89.3675L439.88 89.351C444.73 83.8925 444.444 75.7132 439.649 69.544C437.167 66.3499 432.588 64.1289 427.59 63.0649ZM410.384 65.2989C410.159 64.7952 409.569 64.5691 409.065 64.7938C401.374 68.2249 394.193 74.9647 387.972 84.7294C387.675 85.1945 387.812 85.8118 388.277 86.1081C388.742 86.4045 389.36 86.2677 389.656 85.8025C395.739 76.2554 402.65 69.8424 409.879 66.6176C410.383 66.393 410.609 65.8025 410.384 65.2989ZM387.916 86.6963C387.442 86.4148 386.829 86.5711 386.548 87.0454C386.237 87.5691 385.929 88.1007 385.623 88.6403C385.351 89.1202 385.52 89.7295 386 90.0013C386.48 90.2731 387.089 90.1044 387.361 89.6246C387.66 89.0965 387.961 88.5765 388.265 88.0646C388.547 87.5903 388.39 86.9777 387.916 86.6963ZM385.327 91.2417C384.838 90.987 384.235 91.1771 383.98 91.6662C379.978 99.3534 376.468 108.49 373.603 119.013C373.458 119.545 373.772 120.094 374.304 120.239C374.836 120.384 375.385 120.07 375.53 119.538C378.364 109.127 381.826 100.128 385.751 92.5885C386.006 92.0994 385.816 91.4964 385.327 91.2417Z" fill="#232938"/>
<path fill-rule="evenodd" clip-rule="evenodd" d="M334.051 5.73596C338.997 7.12272 343.966 9.79272 347.465 13.3784C347.85 13.7732 347.842 14.4054 347.447 14.7905C347.052 15.1756 346.42 15.1678 346.035 14.7731C342.827 11.4845 338.187 8.96982 333.512 7.65893C328.81 6.34065 324.263 6.29063 321.189 7.68908C314.796 10.5974 311.416 16.82 312.889 22.8015C313.447 24.6733 314.427 25.7461 315.469 26.2881C316.528 26.8396 317.753 26.8951 318.876 26.544C320.003 26.1917 320.975 25.4456 321.532 24.4677C322.076 23.5119 322.257 22.2801 321.725 20.843C321.534 20.3258 321.798 19.7514 322.315 19.56C322.833 19.3686 323.407 19.6328 323.598 20.15C324.33 22.1268 324.111 23.9751 323.268 25.456C322.437 26.9147 321.033 27.9621 319.472 28.4502C317.906 28.9397 316.128 28.8829 314.547 28.0596C312.951 27.229 311.655 25.6708 310.968 23.3466L310.962 23.3255L310.956 23.3042C309.197 16.2172 313.25 9.10686 320.362 5.87125C324.044 4.19596 329.131 4.3566 334.051 5.73596ZM348.229 15.6834C348.662 15.3414 349.29 15.4148 349.632 15.8474C349.984 16.2927 350.327 16.7502 350.661 17.2199C350.98 17.6693 350.875 18.2928 350.426 18.6123C349.976 18.9319 349.353 18.8266 349.033 18.3772C348.719 17.9347 348.396 17.5043 348.065 17.0861C347.723 16.6535 347.797 16.0255 348.229 15.6834ZM352.338 21.8316C352.832 21.5861 353.431 21.7874 353.677 22.2812C360.227 35.456 361.381 55.3921 355.867 80.3607C355.748 80.8992 355.215 81.2394 354.676 81.1204C354.138 81.0015 353.798 80.4685 353.917 79.93C359.386 55.1644 358.147 35.7591 351.888 23.1703C351.643 22.6765 351.844 22.0771 352.338 21.8316ZM354.076 84.1654C354.612 84.2953 354.942 84.835 354.812 85.371L352.315 95.6747C352.186 96.2106 351.646 96.5399 351.11 96.41C350.574 96.2802 350.245 95.7404 350.374 95.2044L352.871 84.9008C353.001 84.3648 353.54 84.0355 354.076 84.1654Z" fill="#232938"/>
<path fill-rule="evenodd" clip-rule="evenodd" d="M360.875 117.489L368.92 56.3411L368.601 56.2991L360.556 117.447L360.875 117.489Z" fill="#D7CFFF"/>
<path fill-rule="evenodd" clip-rule="evenodd" d="M336.274 100.642L318.266 33.435L318.563 33.3421L336.571 100.549L336.274 100.642Z" fill="#D7CFFF"/>
<path fill-rule="evenodd" clip-rule="evenodd" d="M340.752 130.127C340.752 124.024 347.382 119.077 355.561 119.077C363.74 119.077 370.37 124.024 370.37 130.127L340.752 130.127Z" fill="#FFE0CF"/>
<defs>
<radialGradient id="paint0_radial_815_2" cx="0" cy="0" r="1" gradientUnits="userSpaceOnUse" gradientTransform="translate(296 211.5) rotate(90) scale(19.5 296)">
<stop stop-color="#403A80" stop-opacity="0.15"/>
<stop offset="1" stop-color="white" stop-opacity="0"/>
</radialGradient>
</defs>
</svg>
