<svg width="44" height="44" viewBox="0 0 44 44" fill="none" xmlns="http://www.w3.org/2000/svg">
<path fill-rule="evenodd" clip-rule="evenodd" d="M13.7594 13.1608C12.4227 13.1608 11.1407 12.6297 10.1955 11.6843C9.2503 10.7389 8.71929 9.45673 8.71929 8.11976C8.71929 6.7828 9.2503 5.50059 10.1955 4.55522C11.1407 3.60984 12.4227 3.07874 13.7594 3.07874C20.8155 3.07874 22.8315 13.1608 22.8315 13.1608C22.8315 13.1608 24.8476 3.07874 31.9037 3.07874C33.2404 3.07874 34.5224 3.60984 35.4676 4.55522C36.4128 5.50059 36.9438 6.7828 36.9438 8.11976C36.9438 9.45673 36.4128 10.7389 35.4676 11.6843C34.5224 12.6297 33.2404 13.1608 31.9037 13.1608H43.9999V22.2346H39.9678V43.407H7.71127V22.2346H3.6792V13.1608H13.7594Z" fill="#CFE2FF"/>
<path fill-rule="evenodd" clip-rule="evenodd" d="M10.7354 0.406982C9.2249 0.406982 7.77628 1.00713 6.7082 2.07541C5.64013 3.14368 5.04009 4.59258 5.04009 6.10334C5.04009 7.61411 5.64013 9.06301 6.7082 10.1313C6.834 10.2571 6.96507 10.3764 7.1009 10.489H0.655212C0.293348 10.489 0 10.7824 0 11.1444V20.2182C0 20.5802 0.293348 20.8736 0.655212 20.8736H4.03207V41.3905C4.03207 41.7525 4.32542 42.0459 4.68728 42.0459H36.9439C37.3057 42.0459 37.5991 41.7525 37.5991 41.3905V20.8736H40.9759C41.3378 20.8736 41.6311 20.5802 41.6311 20.2182V11.1444C41.6311 10.7824 41.3378 10.489 40.9759 10.489H32.5142C32.65 10.3764 32.7811 10.2571 32.9069 10.1313C33.975 9.06301 34.575 7.61411 34.575 6.10334C34.575 4.59258 33.975 3.14368 32.9069 2.07541C31.8388 1.00713 30.3902 0.406982 28.8797 0.406982C24.9872 0.406982 22.5478 3.19742 21.1235 5.78753C20.543 6.84307 20.1135 7.89461 19.8076 8.77178C19.5016 7.89461 19.0721 6.84307 18.4916 5.78753C17.0673 3.19742 14.6279 0.406982 10.7354 0.406982ZM7.63481 3.00219C8.45714 2.17971 9.57245 1.71765 10.7354 1.71765C13.8992 1.71765 15.9958 3.96856 17.3434 6.41916C18.0097 7.63075 18.4669 8.84843 18.7577 9.76689C18.8432 10.0372 18.9141 10.2806 18.9714 10.489H10.7354C9.57245 10.489 8.45714 10.027 7.63481 9.2045C6.81249 8.38202 6.35051 7.2665 6.35051 6.10334C6.35051 4.94019 6.81249 3.82467 7.63481 3.00219ZM22.2717 6.41916C23.6193 3.96856 25.7159 1.71765 28.8797 1.71765C30.0427 1.71765 31.158 2.17971 31.9803 3.00219C32.8026 3.82467 33.2646 4.94019 33.2646 6.10334C33.2646 7.2665 32.8026 8.38202 31.9803 9.2045C31.158 10.027 30.0427 10.489 28.8797 10.489H20.6437C20.701 10.2806 20.7719 10.0372 20.8575 9.76689C21.1482 8.84843 21.6054 7.63075 22.2717 6.41916ZM1.31042 19.5629V11.7997H40.3207V19.5629H1.31042ZM5.34249 40.7352V20.8736H19.1523V40.7352H5.34249ZM20.4628 40.7352V20.8736H36.2886V40.7352H20.4628Z" fill="#232938"/>
</svg>
