<svg width="46" height="37" viewBox="0 0 46 37" fill="none" xmlns="http://www.w3.org/2000/svg">
<path d="M42.7766 5.78454C40.7339 3.76546 37.8873 2.60016 34.9978 2.60016C32.1083 2.60016 29.359 4.41381 27.3163 6.4329L25.1966 8.52707L23.0769 6.4329C21.0139 4.39465 18.1183 2.60122 15.2007 2.60122C12.283 2.60122 9.4849 3.74629 7.42182 5.78454C5.35873 7.82279 4.19971 10.5873 4.19971 13.4698C4.19971 16.3523 5.35873 19.1168 7.42182 21.155L9.54151 23.2492C9.54151 23.2492 21.0998 30.7961 25.0992 36.1896C30.0985 29.8083 40.657 23.2492 40.657 23.2492L42.7766 21.155C44.8203 19.1369 45.9998 16.3245 45.9998 13.4698C45.9998 10.615 44.8203 7.80268 42.7766 5.78454Z" fill="#D7CFFF"/>
<path fill-rule="evenodd" clip-rule="evenodd" d="M22.2111 7.53914L22.2111 7.53916L24.3308 5.44499C26.3735 3.4259 29.1227 1.61225 32.0123 1.61225C32.238 1.61225 32.4635 1.61936 32.6884 1.63344C32.4635 1.61936 32.238 1.61222 32.0122 1.61222C29.1227 1.61222 26.3735 3.42587 24.3308 5.44496L22.2111 7.53914ZM16.0282 2.54348C14.8093 1.96894 13.5144 1.61328 12.2151 1.61328C9.2975 1.61328 6.49936 2.75836 4.43627 4.79661C2.37319 6.83486 1.21416 9.59932 1.21416 12.4818C1.21416 14.1089 1.58347 15.6984 2.2762 17.1409C1.58348 15.6984 1.21419 14.1089 1.21419 12.4819C1.21419 9.59935 2.37322 6.83488 4.4363 4.79663C6.49939 2.75838 9.29753 1.61331 12.2152 1.61331C13.5144 1.61331 14.8093 1.96895 16.0282 2.54348ZM3.70552 19.3699C3.93465 19.6462 4.1784 19.9123 4.43627 20.1671L4.4363 20.1671C4.17842 19.9123 3.93466 19.6462 3.70552 19.3699ZM6.55599 22.2613C6.55597 22.2613 6.55596 22.2612 6.55596 22.2612L6.55599 22.2613ZM21.9778 35.0213C22.024 35.0817 22.0693 35.1418 22.1137 35.2017C22.0693 35.1418 22.024 35.0817 21.9778 35.0213ZM39.6367 20.013L37.5343 22.0902L37.5266 22.0949L37.4437 22.147C37.3709 22.193 37.2637 22.261 37.1254 22.3497C36.8489 22.5272 36.4484 22.7873 35.9517 23.1185C34.9583 23.7808 33.5796 24.7277 32.0377 25.8663C28.957 28.1413 25.2129 31.1906 22.593 34.2705C22.4302 34.462 22.2717 34.6536 22.1178 34.8452C21.9698 34.6533 21.8131 34.4593 21.6486 34.2635C19.4008 31.5881 15.6517 28.5398 12.4773 26.1675C10.8877 24.9795 9.43791 23.9579 8.3855 23.2332C7.85925 22.8709 7.43225 22.5827 7.13668 22.385C6.98889 22.2861 6.87395 22.2099 6.79589 22.1583L6.70694 22.0998L6.6949 22.0919L4.59076 20.013C2.56885 18.0155 1.43315 15.3064 1.43315 12.4819C1.43315 9.65732 2.56885 6.94825 4.59076 4.95068C6.6127 2.95308 9.35526 1.83065 12.2152 1.83065C15.0489 1.83065 17.8919 3.57853 19.937 5.59904L22.0567 7.69321C22.1421 7.77761 22.2802 7.77761 22.3656 7.69321L24.4853 5.599C26.5142 3.59361 29.2102 1.82959 32.0123 1.82959C34.844 1.82959 37.6351 2.9723 39.6367 4.95072C41.6392 6.92817 42.7954 9.68511 42.7954 12.4819C42.7954 15.2786 41.6392 18.0356 39.6367 20.013ZM44.0095 12.4819C44.0095 15.6001 42.724 18.6643 40.4932 20.8673L38.3735 22.9615C38.3208 23.0135 38.2623 23.0596 38.1993 23.0988L38.1932 23.1026L38.172 23.1158L38.0858 23.1701C38.0094 23.2183 37.8958 23.2905 37.7489 23.3849C37.455 23.5737 37.0283 23.8515 36.4999 24.205C35.4427 24.9125 33.9811 25.9218 32.3656 27.128C29.1157 29.5545 25.3145 32.7254 22.8994 35.8082C22.708 36.0525 22.4123 36.1936 22.1006 36.1896C22.0616 36.189 22.0229 36.1863 21.9848 36.1813C22.0229 36.1863 22.0616 36.189 22.1005 36.1895C22.4123 36.1936 22.7079 36.0525 22.8993 35.8082C25.3144 32.7254 29.1157 29.5545 32.3655 27.128C33.9811 25.9217 35.4426 24.9124 36.4998 24.205C37.0282 23.8514 37.455 23.5737 37.7488 23.3848C37.8957 23.2904 38.0093 23.2183 38.0858 23.17L38.172 23.1158L38.1932 23.1025L38.1993 23.0988C38.2623 23.0596 38.3208 23.0135 38.3735 22.9615L40.4932 20.8673C42.724 18.6642 44.0095 15.6001 44.0095 12.4818C44.0095 9.36348 42.724 6.29928 40.493 4.09622C40.493 4.09622 40.493 4.09621 40.493 4.0962C40.493 4.09622 40.493 4.09624 40.493 4.09625C42.724 6.29931 44.0095 9.36351 44.0095 12.4819ZM12.2323 27.4951C12.2323 27.495 12.2323 27.495 12.2323 27.495C12.1272 27.4157 12.0227 27.337 11.9187 27.2589C12.0227 27.337 12.1273 27.4157 12.2323 27.4951ZM6.50382 23.415C6.50381 23.415 6.5038 23.415 6.50379 23.415C6.34364 23.3078 6.21922 23.2252 6.1352 23.1697M40.6476 21.0214L40.6454 21.0236L38.3155 23.283L38.3097 23.2866L38.2887 23.2998L38.2033 23.3535C38.1274 23.4014 38.0142 23.4732 37.8679 23.5673C37.5751 23.7555 37.1494 24.0325 36.6223 24.3852C35.5674 25.0911 34.109 26.0982 32.4972 27.3017C29.2506 29.7258 25.4687 32.8826 23.0722 35.9416C22.8387 36.2397 22.478 36.4119 22.0977 36.4069C21.7173 36.4019 21.3613 36.2203 21.1359 35.9162C19.252 33.3757 15.4954 30.2336 12.0997 27.668C10.4221 26.4005 8.86687 25.2989 7.73086 24.514C7.16316 24.1218 6.70092 23.8092 6.38136 23.5952C6.22171 23.4883 6.09755 23.4059 6.01389 23.3506L5.91898 23.2881L5.89562 23.2727L5.88898 23.2684C5.82095 23.224 5.75728 23.1727 5.69946 23.1155L3.57977 21.0214C1.28835 18.7575 0 15.6859 0 12.4819C0 9.27784 1.28835 6.2062 3.57977 3.94237C5.871 1.67872 8.97735 0.408039 12.2152 0.408039C15.5979 0.408039 18.7853 2.45412 20.948 4.59072L22.2111 5.83868L23.4741 4.59092C25.5936 2.49598 28.6381 0.406982 32.0123 0.406982C35.2219 0.406982 38.3766 1.69781 40.6475 3.94217C42.9196 6.18591 44.2285 9.30552 44.2285 12.4819C44.2285 15.6581 42.9197 18.7777 40.6476 21.0214Z" fill="#232938"/>
</svg>
