<svg width="43" height="45" viewBox="0 0 43 45" fill="none" xmlns="http://www.w3.org/2000/svg">
<path d="M42.9998 2.07019L33.7822 44.407L25.4864 25.97L22.7212 23.9215L3.36426 20.8486L42.9998 2.07019Z" fill="#FFCFEC"/>
<path fill-rule="evenodd" clip-rule="evenodd" d="M40.6197 0.560136C40.4459 0.400734 40.2047 0.362344 39.9965 0.460957L0.360994 19.2393C0.115165 19.3558 -0.0300824 19.6366 0.0052669 19.927C0.0406163 20.2174 0.24797 20.4469 0.513097 20.489L19.7339 23.5403L22.2539 25.4071L30.4796 43.6882C30.5911 43.9361 30.8329 44.0809 31.084 44.0501C31.3351 44.0193 31.5415 43.8195 31.6 43.5507L40.8176 1.21393C40.8701 0.972613 40.7935 0.719537 40.6197 0.560136ZM20.0421 22.265L2.77479 19.5238L39.3746 2.18371L30.8198 41.4764L23.2589 24.6727C23.213 24.5706 23.1435 24.4834 23.0574 24.4196L20.2921 22.371C20.2172 22.3155 20.1317 22.2793 20.0421 22.265Z" fill="#232938"/>
</svg>
