<svg width="129" height="132" viewBox="0 0 129 132" fill="none" xmlns="http://www.w3.org/2000/svg">
<path d="M24.8423 81.1366H102.412V126.437C102.412 128.493 100.745 130.16 98.6882 130.16H28.5656C26.5093 130.16 24.8423 128.493 24.8423 126.437V81.1366Z" fill="white"/>
<path opacity="0.15" d="M101.791 126.437L101.791 128.919L26.704 128.919L26.704 126.437L101.791 126.437Z" fill="#232938"/>
<path d="M55.8701 82.3777H71.384V128.919H55.8701V82.3777Z" fill="#FFCFEC"/>
<path fill-rule="evenodd" clip-rule="evenodd" d="M72.6249 82.3777H101.17V126.437C101.17 127.808 100.059 128.919 98.6882 128.919H72.6249V82.3777ZM71.3838 82.3777H55.87V128.919H71.3838V82.3777ZM54.6289 128.919V82.3777H26.0834V126.437C26.0834 127.808 27.1947 128.919 28.5656 128.919H54.6289ZM54.6289 81.1366H72.6249H102.412V126.437C102.412 128.493 100.745 130.16 98.6882 130.16H72.6249H54.6289H28.5656C26.5093 130.16 24.8423 128.493 24.8423 126.437V81.1366H54.6289Z" fill="#232938"/>
<path opacity="0.8" d="M55.8701 82.3777H58.3523V128.919H55.8701V82.3777Z" fill="white"/>
<path d="M85.2472 49.329C87.076 48.3888 89.3207 49.1093 90.2609 50.9381L126.86 122.133C127.8 123.962 127.079 126.207 125.251 127.147L120.283 129.7C118.455 130.641 116.21 129.92 115.27 128.091L78.6709 56.8961C77.7308 55.0672 78.4512 52.8225 80.2801 51.8824L85.2472 49.329Z" fill="white"/>
<path fill-rule="evenodd" clip-rule="evenodd" d="M125.756 122.701L89.1571 51.5055C88.5303 50.2863 87.0338 49.806 85.8146 50.4328L80.8475 52.9862C79.6283 53.6129 79.148 55.1094 79.7747 56.3286L116.374 127.524C117 128.743 118.497 129.223 119.716 128.597L124.683 126.043C125.902 125.417 126.383 123.92 125.756 122.701ZM90.2609 50.9381C89.3207 49.1093 87.076 48.3888 85.2472 49.329L80.2801 51.8824C78.4512 52.8225 77.7308 55.0672 78.6709 56.8961L115.27 128.091C116.21 129.92 118.455 130.641 120.283 129.7L125.251 127.147C127.079 126.207 127.8 123.962 126.86 122.133L90.2609 50.9381Z" fill="#232938"/>
<path d="M101.672 79.1847C103.5 78.2446 105.745 78.965 106.685 80.7938L112.927 92.9357C113.867 94.7645 113.147 97.0092 111.318 97.9493L104.143 101.638C102.314 102.578 100.069 101.857 99.1293 100.028L92.8876 87.8866C91.9475 86.0578 92.6679 83.8131 94.4968 82.8729L101.672 79.1847Z" fill="#FFCFEC"/>
<path fill-rule="evenodd" clip-rule="evenodd" d="M111.823 93.5031L105.581 81.3613C104.955 80.142 103.458 79.6617 102.239 80.2885L95.0642 83.9767C93.845 84.6035 93.3647 86.1 93.9914 87.3192L100.233 99.461C100.86 100.68 102.356 101.161 103.576 100.534L110.75 96.8455C111.969 96.2188 112.45 94.7223 111.823 93.5031ZM106.685 80.7938C105.745 78.965 103.5 78.2446 101.672 79.1847L94.4968 82.8729C92.6679 83.8131 91.9475 86.0578 92.8876 87.8866L99.1293 100.028C100.069 101.857 102.314 102.578 104.143 101.638L111.318 97.9493C113.147 97.0092 113.867 94.7645 112.927 92.9357L106.685 80.7938Z" fill="#232938"/>
<path opacity="0.8" d="M105.552 81.3345C104.937 80.1429 103.452 79.686 102.235 80.3139L95.0751 84.009C93.8584 84.637 93.3706 86.112 93.9855 87.3035L105.552 81.3345Z" fill="white"/>
<path d="M17.3955 67.4845V58.1761L36.3224 76.4825L17.3955 67.4845Z" fill="#FFCFEC"/>
<path d="M37.8479 34.6243L48.9533 57.5916L48.9533 54.0914L40.2512 24.9259L37.8479 34.6243Z" fill="#D7CFFF"/>
<path d="M63.0001 32.3214L65.8844 22.5757L66.9448 26.8546L63.0001 32.3214Z" fill="#D7CFFF"/>
<path d="M81.9749 38.4342L74.5335 49.3629L73.0001 49.7103L82.8013 28.3509L81.9749 38.4342Z" fill="#CFE2FF"/>
<path d="M74.7098 77.4191L75.3888 72.8767L80.1663 70.407L79.6864 74.8465L74.7098 77.4191Z" fill="#FFE0CF"/>
<path d="M49.1367 65.9889L46.348 65.3948L45 62.3401L47.7326 62.807L49.1367 65.9889Z" fill="#CFE2FF"/>
<path d="M63.4074 61.0456L63.6526 57.9436L66.9577 55.4069L66.8502 58.4032L63.4074 61.0456Z" fill="#FFE0CF"/>
<path fill-rule="evenodd" clip-rule="evenodd" d="M11.4407 39.5985C14.563 38.9337 18.0687 38.9683 21.029 39.9316C21.3549 40.0377 21.5332 40.3878 21.4271 40.7137C21.321 41.0396 20.9709 41.2178 20.645 41.1118C17.9299 40.2283 14.6506 40.1839 11.6992 40.8124C8.73107 41.4443 6.2143 42.7296 4.9265 44.3866C2.24824 47.8326 2.1846 52.2328 4.72208 55.0993C5.56959 55.9682 6.41873 56.2757 7.14825 56.2733C7.8905 56.2709 8.58048 55.9479 9.09716 55.4305C9.61576 54.9112 9.93533 54.2199 9.95945 53.521C9.98303 52.8379 9.72682 52.1079 9.01931 51.4705C8.76467 51.2411 8.7442 50.8488 8.97359 50.5941C9.20297 50.3395 9.59535 50.319 9.84999 50.5484C10.8232 51.4251 11.2363 52.5054 11.1998 53.5638C11.1638 54.6064 10.6939 55.588 9.97537 56.3075C9.25495 57.0289 8.26029 57.5108 7.15225 57.5144C6.03422 57.518 4.87104 57.0347 3.82204 55.954L3.81252 55.9442L3.80343 55.934C0.789352 52.5418 0.966947 47.4587 3.94656 43.6249C5.48929 41.6399 8.33507 40.2597 11.4407 39.5985ZM22.1334 40.9868C22.273 40.6738 22.64 40.5333 22.953 40.6729C27.733 42.8052 32.1954 46.9936 36.0617 53.0619C36.2458 53.3509 36.1608 53.7345 35.8717 53.9187C35.5827 54.1028 35.1991 54.0178 35.0149 53.7288C31.2348 47.7957 26.9398 43.8104 22.4473 41.8064C22.1343 41.6667 21.9938 41.2998 22.1334 40.9868ZM36.0962 54.2842C36.3909 54.1093 36.7716 54.2064 36.9465 54.5011C37.1396 54.8266 37.3312 55.157 37.5211 55.4923C37.69 55.7905 37.5852 56.1692 37.287 56.3381C36.9888 56.507 36.6101 56.4022 36.4412 56.1039C36.2553 55.7758 36.068 55.4527 35.8792 55.1345C35.7043 54.8398 35.8014 54.4591 36.0962 54.2842ZM37.7052 57.1089C38.0091 56.9506 38.3839 57.0688 38.5422 57.3727C41.0295 62.1499 43.2107 67.8278 44.9909 74.3673C45.0809 74.698 44.8858 75.0391 44.5551 75.1291C44.2244 75.2191 43.8833 75.024 43.7933 74.6933C42.0322 68.224 39.8809 62.6314 37.4413 57.9459C37.283 57.6419 37.4012 57.2672 37.7052 57.1089Z" fill="#232938"/>
<path fill-rule="evenodd" clip-rule="evenodd" d="M69.5707 3.97158C66.4969 4.83338 63.4086 6.49265 61.2346 8.72097C60.9953 8.96628 61.0001 9.35916 61.2454 9.5985C61.4907 9.83783 61.8836 9.83298 62.123 9.58766C64.1168 7.54398 67.0001 5.98126 69.9057 5.16661C72.8277 4.34737 75.6534 4.31628 77.5636 5.18534C81.5362 6.99274 83.6368 10.8597 82.7214 14.5769C82.3746 15.7401 81.7655 16.4068 81.1183 16.7437C80.4599 17.0864 79.6989 17.1209 79.001 16.9027C78.3005 16.6837 77.6963 16.2201 77.3503 15.6124C77.0121 15.0184 76.8998 14.2529 77.2302 13.3598C77.3492 13.0384 77.185 12.6814 76.8636 12.5625C76.5422 12.4436 76.1852 12.6077 76.0662 12.9292C75.6117 14.1576 75.7477 15.3062 76.2718 16.2265C76.788 17.1331 77.6602 17.7839 78.6307 18.0873C79.6038 18.3915 80.7085 18.3562 81.6914 17.8446C82.6831 17.3284 83.4886 16.36 83.9155 14.9157L83.9194 14.9026L83.9227 14.8893C85.0159 10.4851 82.4972 6.06642 78.0776 4.05566C75.7893 3.01455 72.628 3.11438 69.5707 3.97158ZM60.7595 10.1534C60.4907 9.94084 60.1004 9.98645 59.8878 10.2553C59.669 10.532 59.4558 10.8164 59.2483 11.1082C59.0497 11.3876 59.1151 11.775 59.3945 11.9736C59.6738 12.1722 60.0612 12.1067 60.2598 11.8274C60.4553 11.5525 60.6558 11.285 60.8614 11.0251C61.0739 10.7562 61.0283 10.366 60.7595 10.1534ZM58.2062 13.9742C57.8993 13.8216 57.5268 13.9467 57.3742 14.2536C53.3036 22.441 52.5861 34.8302 56.0131 50.347C56.087 50.6816 56.4182 50.893 56.7528 50.8191C57.0875 50.7452 57.2989 50.414 57.225 50.0793C53.8259 34.6888 54.596 22.6294 58.4856 14.8061C58.6381 14.4992 58.513 14.1268 58.2062 13.9742ZM57.1257 52.7114C56.7926 52.7921 56.588 53.1275 56.6687 53.4606L58.2201 59.8638C58.3008 60.1969 58.6362 60.4015 58.9693 60.3208C59.3024 60.2401 59.507 59.9046 59.4263 59.5715L57.8749 53.1684C57.7942 52.8353 57.4588 52.6307 57.1257 52.7114Z" fill="#232938"/>
<path fill-rule="evenodd" clip-rule="evenodd" d="M52.9009 73.42L47.9009 35.42L48.0992 35.3939L53.0992 73.3939L52.9009 73.42Z" fill="#D7CFFF"/>
<path fill-rule="evenodd" clip-rule="evenodd" d="M68.1884 62.9505L79.3794 21.1851L79.1952 21.1273L68.0042 62.8928L68.1884 62.9505Z" fill="#D7CFFF"/>
<path fill-rule="evenodd" clip-rule="evenodd" d="M65.4061 81.2744C65.4061 77.4816 61.2858 74.407 56.2031 74.407C51.1204 74.407 47 77.4816 47 81.2744H65.4061Z" fill="#FFE0CF"/>
</svg>
