<svg width="262" height="211" viewBox="0 0 262 211" fill="none" xmlns="http://www.w3.org/2000/svg">
<path fill-rule="evenodd" clip-rule="evenodd" d="M6.39965 104.105C2.86522 104.105 0 106.971 0 110.505V120.105C0 123.639 2.86522 126.504 6.39965 126.504H8.53287V202.233C8.53287 205.768 11.3981 208.633 14.9325 208.633H135.459C138.994 208.633 141.859 205.768 141.859 202.233V126.504H143.992C147.527 126.504 150.392 123.639 150.392 120.105V110.505C150.392 106.971 147.527 104.105 143.992 104.105H6.39965Z" fill="white"/>
<path opacity="0.15" d="M139.726 126.504L139.726 137.17L10.6665 137.17L10.6665 126.504L139.726 126.504Z" fill="#232938"/>
<path opacity="0.15" d="M139.726 202.233L139.726 206.5L10.6665 206.5L10.6665 202.233L139.726 202.233Z" fill="#232938"/>
<path d="M58.6641 124.371H92.7955V208.633H58.6641V124.371Z" fill="#CFE2FF"/>
<path opacity="0.8" d="M60.7964 126.504H65.0628V206.5H60.7964V126.504Z" fill="white"/>
<path d="M53.8637 61.441C66.663 58.8812 69.1991 81.5681 70.9768 95.2563C72.6316 94.967 74.559 94.8671 76.7957 95.0392C76.618 81.7066 81.0622 55.8947 100.261 59.3078C107.727 60.9077 108.794 68.374 113.594 71.0405C118.393 73.707 126.393 82.7732 118.927 92.3727C112.954 100.052 97.5946 103.039 90.6616 103.572L85.8619 101.972L61.8632 102.505C61.3299 103.928 58.8767 106.345 53.3303 104.639C52.0504 103.785 42.131 100.017 37.3312 98.239C33.2426 97.1724 28.6917 97.3857 26.1319 89.7062C22.932 80.1067 32.5315 75.307 36.7979 74.2403C40.2111 73.3871 43.5531 69.6184 44.7975 67.8407C47.3574 62.721 51.9082 61.441 53.8637 61.441Z" fill="#CFE2FF"/>
<path fill-rule="evenodd" clip-rule="evenodd" d="M88.5054 65.2942C93.3072 61.2199 98.8548 61.6784 102.872 63.6868C103.399 63.9503 103.612 64.5909 103.349 65.1178C103.085 65.6447 102.445 65.8583 101.918 65.5948C98.4684 63.8702 93.8832 63.5288 89.8855 66.9208C85.8142 70.3752 82.1192 77.8831 81.0597 92.45C81.017 93.0375 80.5061 93.4792 79.9186 93.4364C79.3311 93.3937 78.8894 92.8828 78.9322 92.2953C80.006 77.5305 83.7772 69.306 88.5054 65.2942ZM29.3321 81.5357C29.9131 81.6325 29.9477 82.3675 29.8509 82.9485C28.2655 85.8021 28.2872 87.7362 30.4554 90.4229C32.6968 93.2003 37.3638 96.0576 46.7 98.816L46.7177 98.8212L46.7351 98.827C48.8636 99.5365 53.8378 101.3 56.4743 102.618C57.0012 102.881 57.2147 103.522 56.9513 104.049C56.6878 104.576 56.0471 104.789 55.5203 104.526C53.0437 103.288 48.2244 101.573 46.0778 100.857C36.653 98.0701 31.4587 95.0628 28.7954 91.7626C26.0572 88.3697 26.1323 85.2688 27.7467 82.5978C27.8435 82.0168 28.751 81.4389 29.3321 81.5357Z" fill="white"/>
<path d="M57.5972 108.372C57.5972 104.838 60.4624 101.972 63.9968 101.972H87.4622C90.9966 101.972 93.8618 104.838 93.8618 108.372V122.238C93.8618 125.772 90.9966 128.637 87.4622 128.637H63.9968C60.4624 128.637 57.5972 125.772 57.5972 122.238V108.372Z" fill="#CFE2FF"/>
<path opacity="0.8" d="M63.9966 104.105C61.6403 104.105 59.7301 106.016 59.7301 108.372V122.238C59.7301 124.594 61.6403 126.504 63.9966 126.504V104.105Z" fill="white"/>
<path fill-rule="evenodd" clip-rule="evenodd" d="M52.5165 104.105H59.2264C59.7166 103.558 60.2997 103.095 60.951 102.742C61.6117 100.343 64.1219 96.7979 69.7858 95.477C68.8336 88.7271 67.8133 79.2404 64.5081 71.613C62.7707 67.6038 62.8658 67.3934 60.5465 65.1536C58.2515 62.9375 55.7652 61.9351 53.0063 62.4868L52.9027 62.5076L52.7971 62.5076C51.1765 62.5076 47.0351 63.6172 44.6849 68.3176L44.6498 68.3879L44.6047 68.4523C43.9396 69.4025 42.7397 70.8515 41.2565 72.1812C39.789 73.4969 37.9448 74.7863 35.9901 75.275C33.9865 75.7759 30.7124 77.1678 28.3527 79.5275C26.0497 81.8305 24.6281 85.0215 26.0772 89.3688C27.7318 93.2684 27.9637 93.0938 29.865 94.8683C32.7889 96.8975 35.6669 97.7691 37.6005 98.2735L37.6519 98.2869L37.7017 98.3053C40.1057 99.1957 43.7922 100.585 47.0403 101.859C48.6636 102.496 50.1834 103.106 51.3809 103.613C51.7872 103.785 52.1712 103.95 52.5165 104.105ZM46.923 104.105C46.705 104.019 46.4842 103.932 46.2612 103.845C43.0516 102.586 39.4064 101.212 37.0098 100.324C34.8532 99.754 31.5385 98.4284 28.4169 96.262C26.1319 94.335 25.5986 93.2684 24.0534 90.0434C22.3027 84.7912 24.0809 80.7826 26.8443 78.0191C29.551 75.3125 33.2098 73.7712 35.4727 73.2055C36.9311 72.8409 38.4645 71.8194 39.8324 70.5929C41.1516 69.4103 42.2242 68.1212 42.8137 67.2906C45.547 61.897 50.3642 60.42 52.6888 60.3754C56.2871 59.693 59.4168 61.0972 62.0283 63.6191C64.6398 66.1409 64.68 66.6448 66.4654 70.7648C69.8608 78.6002 70.9157 88.2506 71.8887 95.112C73.0576 94.9735 74.3338 94.9218 75.7252 94.9754C75.7652 88.2769 76.9104 78.974 80.2908 71.5199C82.0826 67.5686 84.5372 64.0601 87.8644 61.7646C91.2218 59.4483 95.3869 58.4245 100.448 59.3242L100.466 59.3275L100.485 59.3314C104.597 60.2126 106.928 62.7307 108.781 65.2007C109.162 65.7086 109.508 66.1928 109.842 66.6602C110.35 67.3711 110.83 68.0438 111.364 68.7022C112.216 69.7527 113.081 70.6022 114.112 71.1747C116.686 72.6046 120.064 75.7021 121.837 79.7448C123.644 83.8663 123.766 88.9548 119.769 94.094C116.58 98.1937 110.991 100.942 105.484 102.733C103.839 103.268 102.184 103.723 100.577 104.105H143.992C147.527 104.105 150.392 106.971 150.392 110.505V120.105C150.392 123.639 147.527 126.504 143.992 126.504H141.859V202.233C141.859 205.768 138.994 208.633 135.459 208.633H14.9325C11.3981 208.633 8.53287 205.768 8.53287 202.233C8.53287 176.99 8.53287 151.747 8.53287 126.504H6.39965C2.86522 126.504 0 123.639 0 120.105V119.038V116.905V110.505C0 106.971 2.86522 104.105 6.39965 104.105H46.923ZM2.13322 116.905V110.505C2.13322 108.149 4.04336 106.239 6.39965 106.239L52.2638 106.239H53.3304H55.4636L57.961 106.239C57.7252 106.906 57.5968 107.624 57.5968 108.372V122.238C57.5968 122.986 57.7252 123.704 57.961 124.371L8.53287 124.371L6.39965 124.371C4.04336 124.371 2.13322 122.461 2.13322 120.105V116.905ZM10.6661 126.504H58.6635V206.5H14.9325C12.5762 206.5 10.6661 204.59 10.6661 202.233C10.6661 176.99 10.6661 151.747 10.6661 126.504ZM90.6617 127.781V206.5H60.7967V127.781C61.738 128.326 62.8308 128.637 63.9965 128.637H87.4619C88.6275 128.637 89.7204 128.326 90.6617 127.781ZM92.7949 206.5V126.504H139.726V202.233C139.726 204.59 137.816 206.5 135.459 206.5H92.7949ZM141.859 124.371L143.992 124.371C146.348 124.371 148.259 122.461 148.259 120.105V110.505C148.259 108.149 146.348 106.239 143.992 106.239H93.4974C93.7332 106.906 93.8615 107.624 93.8615 108.372V122.238C93.8615 122.986 93.7332 123.704 93.4974 124.371L141.859 124.371ZM63.9401 104.106C61.3155 104.136 60.3008 106.239 60.3008 106.239C59.9378 106.866 59.7301 107.595 59.7301 108.372V122.238C59.7301 123.015 59.9378 123.743 60.3008 124.371C60.3008 124.371 61.33 126.504 63.9965 126.504H75.7292H87.4619C90.1284 126.504 91.1575 124.371 91.1575 124.371C91.5205 123.743 91.7283 123.015 91.7283 122.238V108.372C91.7283 107.595 91.5205 106.866 91.1575 106.239C91.0746 106.095 90.948 105.906 90.7766 105.699L90.7435 105.702L90.7412 105.657C90.1538 104.966 89.0747 104.105 87.4619 104.105H85.7102L85.7004 104.109L63.9401 104.106ZM91.594 103.485C95.0083 103.143 99.9683 102.284 104.824 100.704C110.224 98.9486 115.3 96.3643 118.085 92.7844C121.554 88.3241 121.409 84.0798 119.883 80.6017C118.323 77.0448 115.302 74.276 113.076 73.0394C111.706 72.2786 110.639 71.1949 109.707 70.0455C109.146 69.3532 108.586 68.5717 108.04 67.8098C107.712 67.352 107.389 66.9008 107.074 66.4807C105.33 64.1552 103.399 62.1433 100.056 61.4212C95.5261 60.6202 91.942 61.5431 89.0758 63.5205C86.1756 65.5214 83.9304 68.6592 82.2336 72.4009C78.9998 79.5317 77.8836 88.5766 77.8578 95.1062C80.1834 95.3982 82.2813 96.6057 83.8334 97.9715C84.7342 98.7642 85.4864 99.64 86.0214 100.485C86.3217 100.959 86.5808 101.466 86.7443 101.972H87.4619C89.0369 101.972 90.4791 102.541 91.594 103.485ZM84.4234 101.972C84.364 101.863 84.2962 101.748 84.2192 101.626C83.8043 100.971 83.1899 100.247 82.4241 99.573C80.8762 98.2107 78.8502 97.1723 76.7958 97.1723H76.7548L76.714 97.1692C74.5552 97.0031 72.7177 97.1012 71.1605 97.3734C66.7927 98.137 64.5728 100.276 63.5806 101.986C63.7181 101.977 63.8568 101.972 63.9965 101.972H84.4234Z" fill="#232938"/>
<path d="M222.025 129.906H97.2047V202.801C97.2047 206.11 99.8871 208.792 103.196 208.792H216.034C219.342 208.792 222.025 206.11 222.025 202.801V129.906Z" fill="white"/>
<path opacity="0.15" d="M98.2031 202.801L98.2031 206.795L219.029 206.795L219.029 202.801L98.2031 202.801Z" fill="#232938"/>
<path d="M172.097 131.903H147.133V206.795H172.097V131.903Z" fill="#FFCFEC"/>
<path fill-rule="evenodd" clip-rule="evenodd" d="M145.136 131.903H99.2018V202.801C99.2018 205.007 100.99 206.795 103.196 206.795H145.136V131.903ZM147.133 131.903H172.097V206.795H147.133V131.903ZM174.094 206.795V131.903H220.028V202.801C220.028 205.007 218.239 206.795 216.034 206.795H174.094ZM174.094 129.906H145.136H97.2047V202.801C97.2047 206.11 99.8871 208.792 103.196 208.792H145.136H174.094H216.034C219.342 208.792 222.025 206.11 222.025 202.801V129.906H174.094Z" fill="#232938"/>
<path opacity="0.8" d="M172.097 131.903H168.103V206.795H172.097V131.903Z" fill="white"/>
<path d="M124.825 78.7226C121.882 77.2098 118.27 78.3691 116.757 81.3119L57.8641 195.876C56.3513 198.818 57.5106 202.43 60.4535 203.943L68.4463 208.052C71.3891 209.565 75.0012 208.406 76.514 205.463L135.407 90.8991C136.92 87.9563 135.76 84.3442 132.817 82.8314L124.825 78.7226Z" fill="white"/>
<path fill-rule="evenodd" clip-rule="evenodd" d="M59.6403 196.789L118.533 82.225C119.542 80.2631 121.95 79.4902 123.912 80.4988L131.904 84.6076C133.866 85.6161 134.639 88.0242 133.631 89.9861L74.7378 204.55C73.7293 206.512 71.3212 207.284 69.3593 206.276L61.3665 202.167C59.4046 201.159 58.6318 198.75 59.6403 196.789ZM116.757 81.3119C118.27 78.3691 121.882 77.2098 124.825 78.7226L132.817 82.8314C135.76 84.3442 136.92 87.9563 135.407 90.8991L76.514 205.463C75.0012 208.406 71.3891 209.565 68.4463 208.052L60.4535 203.943C57.5106 202.43 56.3513 198.818 57.8641 195.875L116.757 81.3119Z" fill="#232938"/>
<path d="M98.3959 126.765C95.4531 125.252 91.841 126.411 90.3282 129.354L80.2845 148.892C78.7716 151.835 79.9309 155.447 82.8738 156.96L94.419 162.895C97.3618 164.408 100.974 163.248 102.487 160.306L112.53 140.768C114.043 137.825 112.884 134.213 109.941 132.7L98.3959 126.765Z" fill="#FFCFEC"/>
<path fill-rule="evenodd" clip-rule="evenodd" d="M82.0606 149.805L92.1044 130.267C93.1129 128.305 95.5209 127.533 97.4829 128.541L109.028 134.476C110.99 135.485 111.763 137.893 110.754 139.855L100.711 159.393C99.702 161.354 97.2939 162.127 95.332 161.119L83.7869 155.184C81.8249 154.175 81.0521 151.767 82.0606 149.805ZM90.3282 129.354C91.841 126.411 95.4531 125.252 98.3959 126.765L109.941 132.7C112.884 134.213 114.043 137.825 112.53 140.768L102.487 160.306C100.974 163.248 97.3618 164.408 94.419 162.895L82.8738 156.96C79.9309 155.447 78.7716 151.835 80.2845 148.892L90.3282 129.354Z" fill="#232938"/>
<path opacity="0.8" d="M92.1519 130.224C93.1414 128.307 95.5308 127.572 97.4887 128.582L109.01 134.528C110.968 135.538 111.753 137.912 110.764 139.829L92.1519 130.224Z" fill="white"/>
<path d="M234.008 107.937V92.959L203.552 122.417L234.008 107.937Z" fill="#FFCFEC"/>
<path d="M201.098 55.0606L183.227 92.0184L183.227 86.3861L197.23 39.4545L201.098 55.0606Z" fill="#D7CFFF"/>
<path d="M160.624 51.3549L155.982 35.6727L154.276 42.5582L160.624 51.3549Z" fill="#D7CFFF"/>
<path d="M130.09 61.1915L142.065 78.7774L144.532 79.3363L128.761 44.9659L130.09 61.1915Z" fill="#CFE2FF"/>
<path d="M141.781 123.924L140.688 116.614L133.001 112.64L133.773 119.784L141.781 123.924Z" fill="#FFE0CF"/>
<path d="M182.932 105.531L187.419 104.575L189.588 99.6595L185.191 100.411L182.932 105.531Z" fill="#CFE2FF"/>
<path d="M159.968 97.5764L159.574 92.5848L154.255 88.5029L154.428 93.3245L159.968 97.5764Z" fill="#FFE0CF"/>
<path fill-rule="evenodd" clip-rule="evenodd" d="M243.59 63.0649C238.566 61.9951 232.925 62.0508 228.161 63.6009C227.637 63.7716 227.35 64.335 227.521 64.8594C227.691 65.3839 228.255 65.6707 228.779 65.5C233.148 64.0783 238.425 64.007 243.174 65.0182C247.95 66.0351 252 68.1032 254.073 70.7696C258.382 76.3148 258.485 83.3954 254.401 88.008C253.038 89.4062 251.671 89.9009 250.497 89.8971C249.303 89.8932 248.193 89.3735 247.361 88.5409C246.527 87.7052 246.013 86.5929 245.974 85.4683C245.936 84.369 246.348 83.1943 247.487 82.1687C247.896 81.7996 247.929 81.1682 247.56 80.7584C247.191 80.3487 246.56 80.3157 246.15 80.6849C244.584 82.0956 243.919 83.834 243.978 85.5371C244.036 87.2148 244.792 88.7943 245.948 89.9521C247.107 91.113 248.708 91.8885 250.491 91.8942C252.29 91.9 254.162 91.1223 255.85 89.3833L255.865 89.3675L255.88 89.351C260.73 83.8925 260.444 75.7132 255.649 69.544C253.167 66.3499 248.588 64.1289 243.59 63.0649ZM226.384 65.2989C226.159 64.7952 225.569 64.5691 225.065 64.7938C217.374 68.2249 210.193 74.9647 203.972 84.7294C203.675 85.1945 203.812 85.8118 204.277 86.1081C204.742 86.4045 205.36 86.2677 205.656 85.8025C211.739 76.2554 218.65 69.8424 225.879 66.6176C226.383 66.393 226.609 65.8026 226.384 65.2989ZM203.916 86.6963C203.442 86.4148 202.829 86.5711 202.548 87.0454C202.237 87.5691 201.929 88.1007 201.623 88.6403C201.351 89.1202 201.52 89.7295 202 90.0013C202.48 90.2731 203.089 90.1044 203.361 89.6246C203.66 89.0965 203.961 88.5765 204.265 88.0646C204.547 87.5903 204.39 86.9777 203.916 86.6963ZM201.327 91.2417C200.838 90.987 200.235 91.1771 199.98 91.6662C195.978 99.3534 192.468 108.49 189.603 119.013C189.458 119.545 189.772 120.094 190.304 120.239C190.836 120.384 191.385 120.07 191.53 119.538C194.364 109.127 197.826 100.128 201.751 92.5885C202.006 92.0994 201.816 91.4964 201.327 91.2417Z" fill="#232938"/>
<path fill-rule="evenodd" clip-rule="evenodd" d="M150.051 5.73596C154.997 7.12272 159.966 9.79272 163.465 13.3784C163.85 13.7732 163.842 14.4054 163.447 14.7905C163.052 15.1756 162.42 15.1678 162.035 14.7731C158.827 11.4845 154.187 8.96982 149.512 7.65893C144.81 6.34065 140.263 6.29063 137.189 7.68908C130.796 10.5974 127.416 16.82 128.889 22.8015C129.447 24.6733 130.427 25.7461 131.469 26.2881C132.528 26.8396 133.753 26.8951 134.876 26.544C136.003 26.1917 136.975 25.4456 137.532 24.4677C138.076 23.5119 138.257 22.2801 137.725 20.843C137.534 20.3258 137.798 19.7514 138.315 19.56C138.833 19.3686 139.407 19.6328 139.598 20.15C140.33 22.1268 140.111 23.9751 139.268 25.456C138.437 26.9147 137.033 27.9621 135.472 28.4502C133.906 28.9397 132.128 28.8829 130.547 28.0596C128.951 27.229 127.655 25.6708 126.968 23.3466L126.962 23.3255L126.956 23.3042C125.197 16.2172 129.25 9.10685 136.362 5.87125C140.044 4.19596 145.131 4.3566 150.051 5.73596ZM164.229 15.6834C164.662 15.3414 165.29 15.4148 165.632 15.8474C165.984 16.2927 166.327 16.7502 166.661 17.2199C166.98 17.6693 166.875 18.2928 166.426 18.6123C165.976 18.9319 165.353 18.8266 165.033 18.3772C164.719 17.9347 164.396 17.5043 164.065 17.0861C163.723 16.6535 163.797 16.0255 164.229 15.6834ZM168.338 21.8316C168.832 21.5861 169.431 21.7874 169.677 22.2812C176.227 35.456 177.381 55.3921 171.867 80.3607C171.748 80.8992 171.215 81.2394 170.676 81.1204C170.138 81.0015 169.798 80.4685 169.917 79.93C175.386 55.1644 174.147 35.7591 167.888 23.1703C167.643 22.6765 167.844 22.0771 168.338 21.8316ZM170.076 84.1654C170.612 84.2953 170.942 84.835 170.812 85.371L168.315 95.6747C168.186 96.2106 167.646 96.5399 167.11 96.41C166.574 96.2802 166.245 95.7404 166.374 95.2044L168.871 84.9008C169.001 84.3648 169.54 84.0355 170.076 84.1654Z" fill="#232938"/>
<path fill-rule="evenodd" clip-rule="evenodd" d="M176.875 117.489L184.92 56.3411L184.601 56.2991L176.556 117.447L176.875 117.489Z" fill="#D7CFFF"/>
<path fill-rule="evenodd" clip-rule="evenodd" d="M152.274 100.642L134.266 33.435L134.563 33.3421L152.571 100.549L152.274 100.642Z" fill="#D7CFFF"/>
<path fill-rule="evenodd" clip-rule="evenodd" d="M156.752 130.127C156.752 124.024 163.382 119.077 171.561 119.077C179.74 119.077 186.37 124.024 186.37 130.127H156.752Z" fill="#FFE0CF"/>
</svg>
