<svg width="112" height="89" viewBox="0 0 112 89" fill="none" xmlns="http://www.w3.org/2000/svg">
<path fill-rule="evenodd" clip-rule="evenodd" d="M27.3044 27.8108C25.248 27.8108 23.5811 29.4778 23.5811 31.5341V37.1191C23.5811 39.1754 25.248 40.8424 27.3044 40.8424H28.5455V84.9018C28.5455 86.9581 30.2125 88.6251 32.2688 88.6251H102.391C104.448 88.6251 106.115 86.9581 106.115 84.9018V40.8424H107.356C109.412 40.8424 111.079 39.1754 111.079 37.1191V31.5341C111.079 29.4778 109.412 27.8108 107.356 27.8108H27.3044Z" fill="white"/>
<path opacity="0.15" d="M104.874 40.8425L104.874 47.048L29.7865 47.048L29.7865 40.8425L104.874 40.8425Z" fill="#232938"/>
<path opacity="0.15" d="M104.874 84.9018L104.874 87.384L29.7865 87.384L29.7865 84.9018L104.874 84.9018Z" fill="#232938"/>
<path d="M57.7114 39.6013H77.5692V88.6251H57.7114V39.6013Z" fill="#D7CFFF"/>
<path opacity="0.8" d="M58.9526 40.8425H61.4349V87.384H58.9526V40.8425Z" fill="white"/>
<path d="M52.4366 0.506365C59.8833 -0.982965 63.841 14.6985 64.8753 22.6623C65.838 22.494 66.9594 22.4359 68.2607 22.536C68.1573 14.7791 70.7429 -0.238296 81.9129 1.74748C86.2568 2.67831 86.8773 7.02219 89.6698 8.57357C92.4623 10.125 97.1165 15.3997 92.7726 20.9847C89.2975 25.4526 80.3615 27.1902 76.3279 27.5005L73.5354 26.5696L59.573 26.8799C59.2627 27.7073 57.8354 29.1139 54.6085 28.121C53.8639 27.6246 48.0927 25.432 45.3002 24.3977C42.9214 23.7771 37.7915 21.419 36.3022 16.951C34.4406 11.3661 40.0255 8.57357 42.5078 7.95302C44.4935 7.45657 46.4379 5.26395 47.1619 4.22969C48.6512 1.25103 51.2989 0.506366 52.4366 0.506365Z" fill="#D7CFFF"/>
<path fill-rule="evenodd" clip-rule="evenodd" d="M75.0734 5.23041C77.8671 2.85999 81.0947 3.12675 83.4317 4.29523C83.7383 4.4485 83.8625 4.82125 83.7093 5.12779C83.556 5.43433 83.1833 5.55859 82.8767 5.40532C80.8699 4.40194 78.2022 4.20331 75.8764 6.17676C73.5077 8.18656 71.3579 12.5547 70.7415 21.0297C70.7167 21.3715 70.4194 21.6285 70.0776 21.6036C69.7358 21.5787 69.4788 21.2815 69.5037 20.9397C70.1284 12.3495 72.3225 7.56449 75.0734 5.23041ZM40.0257 12.8181C40.3638 12.8744 40.3839 13.302 40.3276 13.64C39.4052 15.3003 39.4178 16.4255 40.6793 17.9887C41.9834 19.6045 44.6986 21.2669 50.1304 22.8718L50.1407 22.8748L50.1508 22.8782C51.3892 23.291 54.2832 24.3169 55.8171 25.0838C56.1236 25.2371 56.2479 25.6098 56.0946 25.9164C55.9413 26.2229 55.5686 26.3471 55.2621 26.1939C53.8212 25.4734 51.0173 24.4756 49.7684 24.059C44.2851 22.4378 41.263 20.6882 39.7135 18.7681C38.1204 16.7941 38.1641 14.99 39.1034 13.436C39.1597 13.098 39.6877 12.7617 40.0257 12.8181Z" fill="white"/>
<path d="M57.0908 30.293C57.0908 28.2367 58.7578 26.5697 60.8141 26.5697H74.4663C76.5227 26.5697 78.1897 28.2367 78.1897 30.293V38.3602C78.1897 40.4166 76.5227 42.0836 74.4663 42.0836H60.8141C58.7578 42.0836 57.0908 40.4166 57.0908 38.3602V30.293Z" fill="#D7CFFF"/>
<path opacity="0.8" d="M60.8145 27.8108C59.4436 27.8108 58.3322 28.9221 58.3322 30.293V38.3602C58.3322 39.7311 59.4436 40.8424 60.8145 40.8424V27.8108Z" fill="white"/>
<path fill-rule="evenodd" clip-rule="evenodd" d="M54.1352 27.8108H58.039C58.3242 27.4922 58.6635 27.2229 59.0424 27.0175C59.4268 25.6218 60.8873 23.5593 64.1825 22.7908C63.6286 18.8637 62.4144 13.3443 60.4914 8.90671C59.4806 6.57411 58.2948 4.59003 56.9454 3.28695C55.6102 1.9976 54.1637 1.41438 52.5585 1.73541L52.4983 1.74746L52.4368 1.74746C51.494 1.74747 49.0845 2.39305 47.7171 5.12776L47.6967 5.16865L47.6705 5.2061C47.2835 5.75893 46.5854 6.60197 45.7225 7.37563C44.8687 8.14106 43.7957 8.89127 42.6585 9.17559C41.4928 9.467 39.5879 10.2768 38.215 11.6497C36.8752 12.9896 36.048 14.8461 36.8911 17.3754C37.5784 19.4372 39.1192 21.0464 40.8217 22.2279C42.5228 23.4085 44.3321 24.1243 45.4571 24.4178L45.487 24.4256L45.516 24.4363C46.9146 24.9543 49.0594 25.7625 50.9492 26.5039C51.8936 26.8744 52.7778 27.2296 53.4745 27.5243C53.7109 27.6242 53.9343 27.7207 54.1352 27.8108ZM50.8809 27.8108C50.7541 27.7607 50.6256 27.7102 50.4959 27.6593C48.6285 26.9267 46.5078 26.1273 45.1134 25.6107C43.8587 25.2791 41.9302 24.5079 40.1141 23.2475C38.2846 21.9779 36.5157 20.1739 35.7137 17.7678C34.6951 14.7121 35.7297 12.3799 37.3374 10.7721C38.9122 9.19738 41.0409 8.30068 42.3574 7.97154C43.2059 7.75941 44.0981 7.16509 44.894 6.45154C45.6614 5.76346 46.2855 5.01346 46.6285 4.53023C48.2187 1.39224 51.0214 0.532933 52.3738 0.506969C54.4673 0.109973 56.2881 0.926945 57.8075 2.39417C59.3269 3.86137 60.5914 6.01615 61.6302 8.41323C63.6056 12.9719 64.8399 18.5865 65.406 22.5784C66.0861 22.4979 66.8286 22.4678 67.6381 22.499C67.6613 18.6018 68.3276 13.1893 70.2943 8.85249C71.3368 6.55367 72.7649 4.51241 74.7007 3.17688C76.654 1.82925 79.0773 1.23359 82.0217 1.75705L82.0325 1.75896L82.0431 1.76124C84.4355 2.27389 85.792 3.73897 86.8698 5.17603C87.0914 5.47151 87.2927 5.75318 87.487 6.02513C87.7826 6.43873 88.0624 6.83015 88.3729 7.21318C88.8683 7.82434 89.3719 8.31862 89.9714 8.65166C91.4689 9.48361 93.4342 11.2857 94.4659 13.6378C95.5175 16.0357 95.5882 18.9962 93.2626 21.9862C91.4075 24.3714 88.1556 25.9706 84.9518 27.0124C83.9946 27.3236 83.0316 27.5883 82.0968 27.8108H107.356C109.412 27.8108 111.079 29.4778 111.079 31.5341V37.1191C111.079 39.1755 109.412 40.8425 107.356 40.8425H106.115V84.9018C106.115 86.9581 104.448 88.6251 102.391 88.6251H32.2688C30.2125 88.6251 28.5455 86.9581 28.5455 84.9018V81.4887H8.0672C7.72448 81.4887 7.44665 81.2109 7.44665 80.8682C7.44665 80.5255 7.72448 80.2476 8.0672 80.2476H28.5455H29.7866V76.5243H28.5455H12.4111C12.0684 76.5243 11.7905 76.2465 11.7905 75.9038C11.7905 75.561 12.0684 75.2832 12.4111 75.2832H28.5455V66.5955H4.96443C4.62171 66.5955 4.34388 66.3176 4.34388 65.9749C4.34388 65.6322 4.62171 65.3543 4.96443 65.3543H28.5455H29.7866V61.9413H28.5455V40.8425H27.3044C25.248 40.8425 23.5811 39.1755 23.5811 37.1191V36.4986H2.79249C2.44977 36.4986 2.17194 36.2207 2.17194 35.878C2.17194 35.5353 2.44977 35.2575 2.79249 35.2575H23.5811V31.5341C23.5811 29.4778 25.248 27.8108 27.3044 27.8108H50.8809ZM24.8222 36.4986H37.8538C38.1965 36.4986 38.4743 36.2207 38.4743 35.878C38.4743 35.5353 38.1965 35.2575 37.8538 35.2575H24.8222V31.5341C24.8222 30.1633 25.9335 29.0519 27.3044 29.0519L53.9882 29.0519H54.6088H55.8499L57.3028 29.0519C57.1656 29.4401 57.091 29.8579 57.091 30.293V38.3602C57.091 38.7954 57.1656 39.2132 57.3028 39.6013H28.5455H27.3044C25.9335 39.6013 24.8222 38.49 24.8222 37.1191V36.4986ZM29.7866 66.5955H35.3716C35.7143 66.5955 35.9921 66.3176 35.9921 65.9749C35.9921 65.6322 35.7143 65.3543 35.3716 65.3543H29.7866V40.8425H57.7115V87.384H32.2688C30.8979 87.384 29.7866 86.2727 29.7866 84.9018V81.4887H37.8538C38.1965 81.4887 38.4743 81.2109 38.4743 80.8682C38.4743 80.5255 38.1965 80.2476 37.8538 80.2476H29.7866V76.5243H31.9585C32.3013 76.5243 32.5791 76.2465 32.5791 75.9038C32.5791 75.561 32.3013 75.2832 31.9585 75.2832H29.7866V66.5955ZM76.3281 41.5855V87.384H58.9526V41.5855C59.5003 41.9023 60.1361 42.0836 60.8143 42.0836H74.4665C75.1447 42.0836 75.7805 41.9023 76.3281 41.5855ZM77.5693 87.384V40.8425H104.874V84.9018C104.874 86.2727 103.762 87.384 102.391 87.384H77.5693ZM106.115 39.6013H107.356C108.727 39.6013 109.838 38.49 109.838 37.1191V31.5341C109.838 30.1633 108.727 29.0519 107.356 29.0519H77.9779C78.1152 29.4401 78.1898 29.8579 78.1898 30.293V38.3602C78.1898 38.7954 78.1152 39.2132 77.9779 39.6013H106.115ZM60.7815 27.811C59.2545 27.8283 58.6642 29.0519 58.6642 29.0519C58.453 29.417 58.3321 29.8409 58.3321 30.293V38.3602C58.3321 38.8124 58.453 39.2362 58.6642 39.6013C58.6642 39.6013 59.2629 40.8425 60.8143 40.8425H67.6404H74.4665C76.0179 40.8425 76.6166 39.6013 76.6166 39.6013C76.8278 39.2362 76.9487 38.8124 76.9487 38.3602V30.293C76.9487 29.8409 76.8278 29.417 76.6166 29.0519C76.5684 28.9685 76.4947 28.8585 76.395 28.7383L76.3757 28.7397L76.3744 28.7137C76.0327 28.3116 75.4049 27.8108 74.4665 27.8108H73.4474L73.4417 27.813L60.7815 27.811ZM76.8706 27.4498C78.857 27.2508 81.7428 26.7508 84.568 25.8321C87.7094 24.8106 90.663 23.307 92.283 21.2242C94.3013 18.6292 94.2168 16.1599 93.3293 14.1363C92.4216 12.0669 90.6637 10.456 89.3687 9.73658C88.5719 9.29392 87.9508 8.66345 87.4087 7.99471C87.0822 7.59192 86.7566 7.13727 86.439 6.694C86.2482 6.42762 86.0602 6.16513 85.8769 5.92069C84.8622 4.56771 83.7387 3.39722 81.7937 2.97707C79.1582 2.51104 77.073 3.048 75.4055 4.19845C73.7181 5.36259 72.4119 7.18816 71.4246 9.36508C69.5432 13.5138 68.8938 18.7761 68.8788 22.575C70.2319 22.7449 71.4524 23.4474 72.3554 24.2421C72.8795 24.7033 73.3171 25.2128 73.6284 25.7043C73.8031 25.9802 73.9538 26.2752 74.049 26.5697H74.4665C75.3829 26.5697 76.2219 26.9008 76.8706 27.4498ZM72.6987 26.5697C72.6641 26.5063 72.6247 26.4391 72.5799 26.3684C72.3385 25.9872 71.981 25.5659 71.5355 25.1738C70.6349 24.3813 69.4562 23.7771 68.2609 23.7771H68.2371L68.2133 23.7753C66.9574 23.6787 65.8883 23.7358 64.9823 23.8941C62.4412 24.3384 61.1496 25.583 60.5723 26.5775C60.6523 26.5723 60.733 26.5697 60.8143 26.5697H72.6987ZM8.0672 38.9808C7.72448 38.9808 7.44665 39.2586 7.44665 39.6013C7.44665 39.9441 7.72448 40.2219 8.0672 40.2219H16.755C17.0977 40.2219 17.3755 39.9441 17.3755 39.6013C17.3755 39.2586 17.0977 38.9808 16.755 38.9808H8.0672ZM0.620554 75.2832C0.277831 75.2832 0 75.561 0 75.9038C0 76.2465 0.277831 76.5243 0.620554 76.5243H6.51582C6.85854 76.5243 7.13637 76.2465 7.13637 75.9038C7.13637 75.561 6.85854 75.2832 6.51582 75.2832H0.620554Z" fill="#232938"/>
</svg>
