<svg width="800" height="471" viewBox="0 0 800 471" fill="none" xmlns="http://www.w3.org/2000/svg">
<path d="M188.477 434.988L134.244 402.127C132.733 401.211 133.067 398.931 134.778 398.484L308.239 353.163C310.432 352.59 311.737 355.525 309.842 356.768L190.613 434.95C189.968 435.373 189.137 435.388 188.477 434.988Z" fill="#FFCFEC"/>
<path d="M708.694 357.302L532.751 341.064C530.847 340.889 529.803 343.228 531.208 344.524L544.895 357.156C545.103 357.348 545.35 357.494 545.619 357.583L742.159 423.054C743.889 423.63 745.427 421.782 744.543 420.188L710.259 358.323C709.938 357.745 709.352 357.362 708.694 357.302Z" fill="#D7CFFF"/>
<path d="M169.602 71.5647L263.289 207.29C263.58 207.711 263.698 208.226 263.619 208.731L259.991 232.052C259.75 233.604 257.895 234.286 256.706 233.26L52.9595 57.4245C51.4441 56.1167 52.5805 53.6411 54.5619 53.9338L168.249 70.7227C168.797 70.8037 169.287 71.1086 169.602 71.5647Z" fill="#CFE2FF"/>
<path fill-rule="evenodd" clip-rule="evenodd" d="M251.776 248.32C251.989 248.029 251.916 247.619 251.616 247.419L15.7836 90.389C15.5007 90.2007 15.1195 90.2687 14.919 90.5432C14.7062 90.8346 14.7791 91.2442 15.0794 91.4441L250.912 248.474C251.195 248.663 251.576 248.595 251.776 248.32Z" fill="#D7CFFF"/>
<path fill-rule="evenodd" clip-rule="evenodd" d="M387.817 227.655C388.07 227.911 388.487 227.905 388.733 227.642L582.033 20.6157C582.265 20.3671 582.26 19.9799 582.021 19.738C581.767 19.4812 581.351 19.4871 581.104 19.7509L387.805 226.777C387.573 227.025 387.578 227.413 387.817 227.655Z" fill="#D7CFFF"/>
<path d="M140.344 358.014L69.3782 378.481C67.4187 379.046 65.967 376.661 67.3709 375.183L89.4195 351.969C89.8239 351.544 90.3952 351.317 90.9818 351.35L139.899 354.097C142.147 354.223 142.507 357.391 140.344 358.014Z" fill="#FFE0CF"/>
<path d="M761.169 364.147L771.679 379.281C772.045 379.808 772.642 380.127 773.283 380.14L795.912 380.572C797.507 380.602 798.494 378.845 797.639 377.499L788.029 362.383C787.669 361.817 787.05 361.469 786.379 361.457L762.85 361.007C761.219 360.976 760.238 362.807 761.169 364.147Z" fill="#CFE2FF"/>
<path d="M472.847 122.902L465.76 96.725C465.612 96.1784 465.703 95.5945 466.011 95.1186L486.853 62.8756C487.772 61.4551 489.93 61.7429 490.442 63.354L498.351 88.26C498.532 88.8284 498.449 89.4477 498.125 89.9489L476.46 123.463C475.52 124.917 473.3 124.573 472.847 122.902Z" fill="#FFE0CF"/>
<path d="M184.297 64.0105L188.566 51.0554C188.743 50.5174 188.683 49.9294 188.402 49.4376L178.297 31.7884C177.456 30.3206 175.286 30.4918 174.688 32.073L170.041 44.3676C169.83 44.9255 169.879 45.5485 170.176 46.0664L180.659 64.3761C181.52 65.8791 183.755 65.6544 184.297 64.0105Z" fill="#FFCFEC"/>
<path d="M580.307 390.137L574.933 413.845C574.792 414.471 574.959 415.127 575.385 415.609L594.92 437.73C595.976 438.926 597.938 438.467 598.354 436.929L604.513 414.11C604.688 413.463 604.526 412.771 604.081 412.268L583.76 389.257C582.68 388.034 580.667 388.547 580.307 390.137Z" fill="#CFE2FF"/>
<path fill-rule="evenodd" clip-rule="evenodd" d="M490.568 343.909C490.418 344.238 490.573 344.624 490.907 344.759L753.666 450.92C753.981 451.047 754.341 450.904 754.482 450.595C754.631 450.266 754.477 449.88 754.142 449.745L491.383 343.584C491.068 343.456 490.708 343.6 490.568 343.909Z" fill="#D7CFFF"/>
</svg>
