<svg width="109" height="72" viewBox="0 0 109 72" fill="none" xmlns="http://www.w3.org/2000/svg">
<path d="M7.97237 5.62128C28.4725 27.6213 47.9725 35.6213 52.9725 36.1213C57.9725 36.6213 95.9725 17.1213 104.472 5.62128M7.97237 5.62128C12.9726 1.33522 99.4722 1.33522 104.472 5.62128M7.97237 5.62128C2.97242 10.6213 4.88435 48.6213 6.47253 57.6213C8.23717 67.6213 16.4726 67.0762 21.4725 67.1213C39.9725 67.2879 80.5724 67.5213 90.9724 67.1213C101.372 66.7213 103.472 53.6213 103.472 53.6213C103.472 53.6213 108.472 12.1213 104.472 5.62128" stroke="#7F74FF" stroke-width="3"/>
<path opacity="0.2" d="M9.29177 8.33612C29.7919 30.3362 49.2919 38.3362 54.2919 38.8362C59.2919 39.3362 97.2919 19.8362 105.792 8.33612M9.29177 8.33612C14.292 4.05007 100.792 4.05007 105.792 8.33612M9.29177 8.33612C7.29174 26.3362 7.7918 49.8362 9.29176 58.3362C11.0564 68.3362 18.7919 69.7911 23.7918 69.8361C42.2918 70.0028 81.8917 70.2361 92.2917 69.8361C102.692 69.4361 103.792 59.3362 103.792 59.3362C103.792 59.3362 108.292 31.8362 105.792 8.33612" stroke="#7F74FF" stroke-width="3"/>
<path opacity="0.3" d="M14.9727 60.1216C14.9727 60.1216 16.4727 62.1216 21.4727 62.6216C26.4727 63.1216 63.4727 62.6216 63.4727 62.6216" stroke="#7F74FF" stroke-linecap="round"/>
<path opacity="0.3" d="M2.47241 9.62158C1.63906 15.4549 0.272362 30.4216 1.47241 43.6216" stroke="#7F74FF" stroke-linecap="round"/>
</svg>
